%TF.GenerationSoftware,KiCad,Pcbnew,10.0.4*%
%TF.CreationDate,2026-09-24T09:27:19+10:00*%
%TF.ProjectId,hackpad,6861636b-7061-4642-9e6b-696361645f70,rev?*%
%TF.SameCoordinates,Original*%
%TF.FileFunction,Legend,Top*%
%TF.FilePolarity,Positive*%
%FSLAX46Y46*%
G04 Gerber Fmt 4.6, Leading zero omitted, Abs format (unit mm)*
G04 Created by KiCad (PCBNEW 10.0.4) date 2026-09-24 09:27:19*
%MOMM*%
%LPD*%
G01*
G04 APERTURE LIST*
%ADD10C,0.100000*%
%ADD11C,0.150000*%
%ADD12C,0.250000*%
%ADD13C,0.120000*%
%ADD14C,0.000000*%
G04 APERTURE END LIST*
D10*
X48833646Y-160627419D02*
X49119360Y-160722657D01*
X49119360Y-160722657D02*
X49214598Y-160817895D01*
X49214598Y-160817895D02*
X49309836Y-161008371D01*
X49309836Y-161008371D02*
X49309836Y-161294085D01*
X49309836Y-161294085D02*
X49214598Y-161484561D01*
X49214598Y-161484561D02*
X49119360Y-161579800D01*
X49119360Y-161579800D02*
X48928884Y-161675038D01*
X48928884Y-161675038D02*
X48166979Y-161675038D01*
X48166979Y-161675038D02*
X48166979Y-159675038D01*
X48166979Y-159675038D02*
X48833646Y-159675038D01*
X48833646Y-159675038D02*
X49024122Y-159770276D01*
X49024122Y-159770276D02*
X49119360Y-159865514D01*
X49119360Y-159865514D02*
X49214598Y-160055990D01*
X49214598Y-160055990D02*
X49214598Y-160246466D01*
X49214598Y-160246466D02*
X49119360Y-160436942D01*
X49119360Y-160436942D02*
X49024122Y-160532180D01*
X49024122Y-160532180D02*
X48833646Y-160627419D01*
X48833646Y-160627419D02*
X48166979Y-160627419D01*
X50928884Y-161579800D02*
X50738408Y-161675038D01*
X50738408Y-161675038D02*
X50357455Y-161675038D01*
X50357455Y-161675038D02*
X50166979Y-161579800D01*
X50166979Y-161579800D02*
X50071741Y-161389323D01*
X50071741Y-161389323D02*
X50071741Y-160627419D01*
X50071741Y-160627419D02*
X50166979Y-160436942D01*
X50166979Y-160436942D02*
X50357455Y-160341704D01*
X50357455Y-160341704D02*
X50738408Y-160341704D01*
X50738408Y-160341704D02*
X50928884Y-160436942D01*
X50928884Y-160436942D02*
X51024122Y-160627419D01*
X51024122Y-160627419D02*
X51024122Y-160817895D01*
X51024122Y-160817895D02*
X50071741Y-161008371D01*
X51881265Y-160341704D02*
X51881265Y-161675038D01*
X51881265Y-160532180D02*
X51976503Y-160436942D01*
X51976503Y-160436942D02*
X52166979Y-160341704D01*
X52166979Y-160341704D02*
X52452694Y-160341704D01*
X52452694Y-160341704D02*
X52643170Y-160436942D01*
X52643170Y-160436942D02*
X52738408Y-160627419D01*
X52738408Y-160627419D02*
X52738408Y-161675038D01*
X55214599Y-161675038D02*
X55214599Y-159675038D01*
X55214599Y-159675038D02*
X55881266Y-161103609D01*
X55881266Y-161103609D02*
X56547932Y-159675038D01*
X56547932Y-159675038D02*
X56547932Y-161675038D01*
X58357456Y-161675038D02*
X58357456Y-160627419D01*
X58357456Y-160627419D02*
X58262218Y-160436942D01*
X58262218Y-160436942D02*
X58071742Y-160341704D01*
X58071742Y-160341704D02*
X57690789Y-160341704D01*
X57690789Y-160341704D02*
X57500313Y-160436942D01*
X58357456Y-161579800D02*
X58166980Y-161675038D01*
X58166980Y-161675038D02*
X57690789Y-161675038D01*
X57690789Y-161675038D02*
X57500313Y-161579800D01*
X57500313Y-161579800D02*
X57405075Y-161389323D01*
X57405075Y-161389323D02*
X57405075Y-161198847D01*
X57405075Y-161198847D02*
X57500313Y-161008371D01*
X57500313Y-161008371D02*
X57690789Y-160913133D01*
X57690789Y-160913133D02*
X58166980Y-160913133D01*
X58166980Y-160913133D02*
X58357456Y-160817895D01*
X59309837Y-161675038D02*
X59309837Y-159675038D01*
X59500313Y-160913133D02*
X60071742Y-161675038D01*
X60071742Y-160341704D02*
X59309837Y-161103609D01*
X61690790Y-161579800D02*
X61500314Y-161675038D01*
X61500314Y-161675038D02*
X61119361Y-161675038D01*
X61119361Y-161675038D02*
X60928885Y-161579800D01*
X60928885Y-161579800D02*
X60833647Y-161389323D01*
X60833647Y-161389323D02*
X60833647Y-160627419D01*
X60833647Y-160627419D02*
X60928885Y-160436942D01*
X60928885Y-160436942D02*
X61119361Y-160341704D01*
X61119361Y-160341704D02*
X61500314Y-160341704D01*
X61500314Y-160341704D02*
X61690790Y-160436942D01*
X61690790Y-160436942D02*
X61786028Y-160627419D01*
X61786028Y-160627419D02*
X61786028Y-160817895D01*
X61786028Y-160817895D02*
X60833647Y-161008371D01*
X62547933Y-161579800D02*
X62738409Y-161675038D01*
X62738409Y-161675038D02*
X63119361Y-161675038D01*
X63119361Y-161675038D02*
X63309838Y-161579800D01*
X63309838Y-161579800D02*
X63405076Y-161389323D01*
X63405076Y-161389323D02*
X63405076Y-161294085D01*
X63405076Y-161294085D02*
X63309838Y-161103609D01*
X63309838Y-161103609D02*
X63119361Y-161008371D01*
X63119361Y-161008371D02*
X62833647Y-161008371D01*
X62833647Y-161008371D02*
X62643171Y-160913133D01*
X62643171Y-160913133D02*
X62547933Y-160722657D01*
X62547933Y-160722657D02*
X62547933Y-160627419D01*
X62547933Y-160627419D02*
X62643171Y-160436942D01*
X62643171Y-160436942D02*
X62833647Y-160341704D01*
X62833647Y-160341704D02*
X63119361Y-160341704D01*
X63119361Y-160341704D02*
X63309838Y-160436942D01*
X65690791Y-161579800D02*
X65976505Y-161675038D01*
X65976505Y-161675038D02*
X66452696Y-161675038D01*
X66452696Y-161675038D02*
X66643172Y-161579800D01*
X66643172Y-161579800D02*
X66738410Y-161484561D01*
X66738410Y-161484561D02*
X66833648Y-161294085D01*
X66833648Y-161294085D02*
X66833648Y-161103609D01*
X66833648Y-161103609D02*
X66738410Y-160913133D01*
X66738410Y-160913133D02*
X66643172Y-160817895D01*
X66643172Y-160817895D02*
X66452696Y-160722657D01*
X66452696Y-160722657D02*
X66071743Y-160627419D01*
X66071743Y-160627419D02*
X65881267Y-160532180D01*
X65881267Y-160532180D02*
X65786029Y-160436942D01*
X65786029Y-160436942D02*
X65690791Y-160246466D01*
X65690791Y-160246466D02*
X65690791Y-160055990D01*
X65690791Y-160055990D02*
X65786029Y-159865514D01*
X65786029Y-159865514D02*
X65881267Y-159770276D01*
X65881267Y-159770276D02*
X66071743Y-159675038D01*
X66071743Y-159675038D02*
X66547934Y-159675038D01*
X66547934Y-159675038D02*
X66833648Y-159770276D01*
X67405077Y-160341704D02*
X68166981Y-160341704D01*
X67690791Y-159675038D02*
X67690791Y-161389323D01*
X67690791Y-161389323D02*
X67786029Y-161579800D01*
X67786029Y-161579800D02*
X67976505Y-161675038D01*
X67976505Y-161675038D02*
X68166981Y-161675038D01*
X69690791Y-160341704D02*
X69690791Y-161675038D01*
X68833648Y-160341704D02*
X68833648Y-161389323D01*
X68833648Y-161389323D02*
X68928886Y-161579800D01*
X68928886Y-161579800D02*
X69119362Y-161675038D01*
X69119362Y-161675038D02*
X69405077Y-161675038D01*
X69405077Y-161675038D02*
X69595553Y-161579800D01*
X69595553Y-161579800D02*
X69690791Y-161484561D01*
X70357458Y-160341704D02*
X71119362Y-160341704D01*
X70643172Y-161675038D02*
X70643172Y-159960752D01*
X70643172Y-159960752D02*
X70738410Y-159770276D01*
X70738410Y-159770276D02*
X70928886Y-159675038D01*
X70928886Y-159675038D02*
X71119362Y-159675038D01*
X71500315Y-160341704D02*
X72262219Y-160341704D01*
X71786029Y-161675038D02*
X71786029Y-159960752D01*
X71786029Y-159960752D02*
X71881267Y-159770276D01*
X71881267Y-159770276D02*
X72071743Y-159675038D01*
X72071743Y-159675038D02*
X72262219Y-159675038D01*
D11*
X83959819Y-176226785D02*
X82959819Y-176226785D01*
X82959819Y-176226785D02*
X82959819Y-175988690D01*
X82959819Y-175988690D02*
X83007438Y-175845833D01*
X83007438Y-175845833D02*
X83102676Y-175750595D01*
X83102676Y-175750595D02*
X83197914Y-175702976D01*
X83197914Y-175702976D02*
X83388390Y-175655357D01*
X83388390Y-175655357D02*
X83531247Y-175655357D01*
X83531247Y-175655357D02*
X83721723Y-175702976D01*
X83721723Y-175702976D02*
X83816961Y-175750595D01*
X83816961Y-175750595D02*
X83912200Y-175845833D01*
X83912200Y-175845833D02*
X83959819Y-175988690D01*
X83959819Y-175988690D02*
X83959819Y-176226785D01*
X83959819Y-174702976D02*
X83959819Y-175274404D01*
X83959819Y-174988690D02*
X82959819Y-174988690D01*
X82959819Y-174988690D02*
X83102676Y-175083928D01*
X83102676Y-175083928D02*
X83197914Y-175179166D01*
X83197914Y-175179166D02*
X83245533Y-175274404D01*
X83293152Y-173845833D02*
X83959819Y-173845833D01*
X82912200Y-174083928D02*
X83626485Y-174322023D01*
X83626485Y-174322023D02*
X83626485Y-173702976D01*
X84279819Y-179084404D02*
X83279819Y-179084404D01*
X84279819Y-178512976D02*
X83708390Y-178941547D01*
X83279819Y-178512976D02*
X83851247Y-179084404D01*
X64959819Y-146940594D02*
X63959819Y-146940594D01*
X63959819Y-146940594D02*
X63959819Y-146702499D01*
X63959819Y-146702499D02*
X64007438Y-146559642D01*
X64007438Y-146559642D02*
X64102676Y-146464404D01*
X64102676Y-146464404D02*
X64197914Y-146416785D01*
X64197914Y-146416785D02*
X64388390Y-146369166D01*
X64388390Y-146369166D02*
X64531247Y-146369166D01*
X64531247Y-146369166D02*
X64721723Y-146416785D01*
X64721723Y-146416785D02*
X64816961Y-146464404D01*
X64816961Y-146464404D02*
X64912200Y-146559642D01*
X64912200Y-146559642D02*
X64959819Y-146702499D01*
X64959819Y-146702499D02*
X64959819Y-146940594D01*
X64959819Y-145892975D02*
X64959819Y-145702499D01*
X64959819Y-145702499D02*
X64912200Y-145607261D01*
X64912200Y-145607261D02*
X64864580Y-145559642D01*
X64864580Y-145559642D02*
X64721723Y-145464404D01*
X64721723Y-145464404D02*
X64531247Y-145416785D01*
X64531247Y-145416785D02*
X64150295Y-145416785D01*
X64150295Y-145416785D02*
X64055057Y-145464404D01*
X64055057Y-145464404D02*
X64007438Y-145512023D01*
X64007438Y-145512023D02*
X63959819Y-145607261D01*
X63959819Y-145607261D02*
X63959819Y-145797737D01*
X63959819Y-145797737D02*
X64007438Y-145892975D01*
X64007438Y-145892975D02*
X64055057Y-145940594D01*
X64055057Y-145940594D02*
X64150295Y-145988213D01*
X64150295Y-145988213D02*
X64388390Y-145988213D01*
X64388390Y-145988213D02*
X64483628Y-145940594D01*
X64483628Y-145940594D02*
X64531247Y-145892975D01*
X64531247Y-145892975D02*
X64578866Y-145797737D01*
X64578866Y-145797737D02*
X64578866Y-145607261D01*
X64578866Y-145607261D02*
X64531247Y-145512023D01*
X64531247Y-145512023D02*
X64483628Y-145464404D01*
X64483628Y-145464404D02*
X64388390Y-145416785D01*
X65279819Y-150274404D02*
X64279819Y-150274404D01*
X65279819Y-149702976D02*
X64708390Y-150131547D01*
X64279819Y-149702976D02*
X64851247Y-150274404D01*
X93076905Y-117847319D02*
X93076905Y-116847319D01*
X93076905Y-116847319D02*
X93315000Y-116847319D01*
X93315000Y-116847319D02*
X93457857Y-116894938D01*
X93457857Y-116894938D02*
X93553095Y-116990176D01*
X93553095Y-116990176D02*
X93600714Y-117085414D01*
X93600714Y-117085414D02*
X93648333Y-117275890D01*
X93648333Y-117275890D02*
X93648333Y-117418747D01*
X93648333Y-117418747D02*
X93600714Y-117609223D01*
X93600714Y-117609223D02*
X93553095Y-117704461D01*
X93553095Y-117704461D02*
X93457857Y-117799700D01*
X93457857Y-117799700D02*
X93315000Y-117847319D01*
X93315000Y-117847319D02*
X93076905Y-117847319D01*
X94505476Y-117180652D02*
X94505476Y-117847319D01*
X94267381Y-116799700D02*
X94029286Y-117513985D01*
X94029286Y-117513985D02*
X94648333Y-117513985D01*
X89743095Y-118167319D02*
X89743095Y-117167319D01*
X90314523Y-118167319D02*
X89885952Y-117595890D01*
X90314523Y-117167319D02*
X89743095Y-117738747D01*
X131684819Y-176226785D02*
X130684819Y-176226785D01*
X130684819Y-176226785D02*
X130684819Y-175988690D01*
X130684819Y-175988690D02*
X130732438Y-175845833D01*
X130732438Y-175845833D02*
X130827676Y-175750595D01*
X130827676Y-175750595D02*
X130922914Y-175702976D01*
X130922914Y-175702976D02*
X131113390Y-175655357D01*
X131113390Y-175655357D02*
X131256247Y-175655357D01*
X131256247Y-175655357D02*
X131446723Y-175702976D01*
X131446723Y-175702976D02*
X131541961Y-175750595D01*
X131541961Y-175750595D02*
X131637200Y-175845833D01*
X131637200Y-175845833D02*
X131684819Y-175988690D01*
X131684819Y-175988690D02*
X131684819Y-176226785D01*
X131684819Y-174702976D02*
X131684819Y-175274404D01*
X131684819Y-174988690D02*
X130684819Y-174988690D01*
X130684819Y-174988690D02*
X130827676Y-175083928D01*
X130827676Y-175083928D02*
X130922914Y-175179166D01*
X130922914Y-175179166D02*
X130970533Y-175274404D01*
X130684819Y-173845833D02*
X130684819Y-174036309D01*
X130684819Y-174036309D02*
X130732438Y-174131547D01*
X130732438Y-174131547D02*
X130780057Y-174179166D01*
X130780057Y-174179166D02*
X130922914Y-174274404D01*
X130922914Y-174274404D02*
X131113390Y-174322023D01*
X131113390Y-174322023D02*
X131494342Y-174322023D01*
X131494342Y-174322023D02*
X131589580Y-174274404D01*
X131589580Y-174274404D02*
X131637200Y-174226785D01*
X131637200Y-174226785D02*
X131684819Y-174131547D01*
X131684819Y-174131547D02*
X131684819Y-173941071D01*
X131684819Y-173941071D02*
X131637200Y-173845833D01*
X131637200Y-173845833D02*
X131589580Y-173798214D01*
X131589580Y-173798214D02*
X131494342Y-173750595D01*
X131494342Y-173750595D02*
X131256247Y-173750595D01*
X131256247Y-173750595D02*
X131161009Y-173798214D01*
X131161009Y-173798214D02*
X131113390Y-173845833D01*
X131113390Y-173845833D02*
X131065771Y-173941071D01*
X131065771Y-173941071D02*
X131065771Y-174131547D01*
X131065771Y-174131547D02*
X131113390Y-174226785D01*
X131113390Y-174226785D02*
X131161009Y-174274404D01*
X131161009Y-174274404D02*
X131256247Y-174322023D01*
X132004819Y-179084404D02*
X131004819Y-179084404D01*
X132004819Y-178512976D02*
X131433390Y-178941547D01*
X131004819Y-178512976D02*
X131576247Y-179084404D01*
X131432200Y-106420832D02*
X131479819Y-106277975D01*
X131479819Y-106277975D02*
X131479819Y-106039880D01*
X131479819Y-106039880D02*
X131432200Y-105944642D01*
X131432200Y-105944642D02*
X131384580Y-105897023D01*
X131384580Y-105897023D02*
X131289342Y-105849404D01*
X131289342Y-105849404D02*
X131194104Y-105849404D01*
X131194104Y-105849404D02*
X131098866Y-105897023D01*
X131098866Y-105897023D02*
X131051247Y-105944642D01*
X131051247Y-105944642D02*
X131003628Y-106039880D01*
X131003628Y-106039880D02*
X130956009Y-106230356D01*
X130956009Y-106230356D02*
X130908390Y-106325594D01*
X130908390Y-106325594D02*
X130860771Y-106373213D01*
X130860771Y-106373213D02*
X130765533Y-106420832D01*
X130765533Y-106420832D02*
X130670295Y-106420832D01*
X130670295Y-106420832D02*
X130575057Y-106373213D01*
X130575057Y-106373213D02*
X130527438Y-106325594D01*
X130527438Y-106325594D02*
X130479819Y-106230356D01*
X130479819Y-106230356D02*
X130479819Y-105992261D01*
X130479819Y-105992261D02*
X130527438Y-105849404D01*
X130479819Y-105516070D02*
X131479819Y-105277975D01*
X131479819Y-105277975D02*
X130765533Y-105087499D01*
X130765533Y-105087499D02*
X131479819Y-104897023D01*
X131479819Y-104897023D02*
X130479819Y-104658928D01*
X131479819Y-103754166D02*
X131479819Y-104325594D01*
X131479819Y-104039880D02*
X130479819Y-104039880D01*
X130479819Y-104039880D02*
X130622676Y-104135118D01*
X130622676Y-104135118D02*
X130717914Y-104230356D01*
X130717914Y-104230356D02*
X130765533Y-104325594D01*
X83959819Y-147536785D02*
X82959819Y-147536785D01*
X82959819Y-147536785D02*
X82959819Y-147298690D01*
X82959819Y-147298690D02*
X83007438Y-147155833D01*
X83007438Y-147155833D02*
X83102676Y-147060595D01*
X83102676Y-147060595D02*
X83197914Y-147012976D01*
X83197914Y-147012976D02*
X83388390Y-146965357D01*
X83388390Y-146965357D02*
X83531247Y-146965357D01*
X83531247Y-146965357D02*
X83721723Y-147012976D01*
X83721723Y-147012976D02*
X83816961Y-147060595D01*
X83816961Y-147060595D02*
X83912200Y-147155833D01*
X83912200Y-147155833D02*
X83959819Y-147298690D01*
X83959819Y-147298690D02*
X83959819Y-147536785D01*
X83959819Y-146012976D02*
X83959819Y-146584404D01*
X83959819Y-146298690D02*
X82959819Y-146298690D01*
X82959819Y-146298690D02*
X83102676Y-146393928D01*
X83102676Y-146393928D02*
X83197914Y-146489166D01*
X83197914Y-146489166D02*
X83245533Y-146584404D01*
X82959819Y-145393928D02*
X82959819Y-145298690D01*
X82959819Y-145298690D02*
X83007438Y-145203452D01*
X83007438Y-145203452D02*
X83055057Y-145155833D01*
X83055057Y-145155833D02*
X83150295Y-145108214D01*
X83150295Y-145108214D02*
X83340771Y-145060595D01*
X83340771Y-145060595D02*
X83578866Y-145060595D01*
X83578866Y-145060595D02*
X83769342Y-145108214D01*
X83769342Y-145108214D02*
X83864580Y-145155833D01*
X83864580Y-145155833D02*
X83912200Y-145203452D01*
X83912200Y-145203452D02*
X83959819Y-145298690D01*
X83959819Y-145298690D02*
X83959819Y-145393928D01*
X83959819Y-145393928D02*
X83912200Y-145489166D01*
X83912200Y-145489166D02*
X83864580Y-145536785D01*
X83864580Y-145536785D02*
X83769342Y-145584404D01*
X83769342Y-145584404D02*
X83578866Y-145632023D01*
X83578866Y-145632023D02*
X83340771Y-145632023D01*
X83340771Y-145632023D02*
X83150295Y-145584404D01*
X83150295Y-145584404D02*
X83055057Y-145536785D01*
X83055057Y-145536785D02*
X83007438Y-145489166D01*
X83007438Y-145489166D02*
X82959819Y-145393928D01*
X84279819Y-150394404D02*
X83279819Y-150394404D01*
X84279819Y-149822976D02*
X83708390Y-150251547D01*
X83279819Y-149822976D02*
X83851247Y-150394404D01*
X102959819Y-128250594D02*
X101959819Y-128250594D01*
X101959819Y-128250594D02*
X101959819Y-128012499D01*
X101959819Y-128012499D02*
X102007438Y-127869642D01*
X102007438Y-127869642D02*
X102102676Y-127774404D01*
X102102676Y-127774404D02*
X102197914Y-127726785D01*
X102197914Y-127726785D02*
X102388390Y-127679166D01*
X102388390Y-127679166D02*
X102531247Y-127679166D01*
X102531247Y-127679166D02*
X102721723Y-127726785D01*
X102721723Y-127726785D02*
X102816961Y-127774404D01*
X102816961Y-127774404D02*
X102912200Y-127869642D01*
X102912200Y-127869642D02*
X102959819Y-128012499D01*
X102959819Y-128012499D02*
X102959819Y-128250594D01*
X101959819Y-127345832D02*
X101959819Y-126679166D01*
X101959819Y-126679166D02*
X102959819Y-127107737D01*
X103279819Y-131584404D02*
X102279819Y-131584404D01*
X103279819Y-131012976D02*
X102708390Y-131441547D01*
X102279819Y-131012976D02*
X102851247Y-131584404D01*
X64959819Y-175916785D02*
X63959819Y-175916785D01*
X63959819Y-175916785D02*
X63959819Y-175678690D01*
X63959819Y-175678690D02*
X64007438Y-175535833D01*
X64007438Y-175535833D02*
X64102676Y-175440595D01*
X64102676Y-175440595D02*
X64197914Y-175392976D01*
X64197914Y-175392976D02*
X64388390Y-175345357D01*
X64388390Y-175345357D02*
X64531247Y-175345357D01*
X64531247Y-175345357D02*
X64721723Y-175392976D01*
X64721723Y-175392976D02*
X64816961Y-175440595D01*
X64816961Y-175440595D02*
X64912200Y-175535833D01*
X64912200Y-175535833D02*
X64959819Y-175678690D01*
X64959819Y-175678690D02*
X64959819Y-175916785D01*
X64959819Y-174392976D02*
X64959819Y-174964404D01*
X64959819Y-174678690D02*
X63959819Y-174678690D01*
X63959819Y-174678690D02*
X64102676Y-174773928D01*
X64102676Y-174773928D02*
X64197914Y-174869166D01*
X64197914Y-174869166D02*
X64245533Y-174964404D01*
X63959819Y-174059642D02*
X63959819Y-173440595D01*
X63959819Y-173440595D02*
X64340771Y-173773928D01*
X64340771Y-173773928D02*
X64340771Y-173631071D01*
X64340771Y-173631071D02*
X64388390Y-173535833D01*
X64388390Y-173535833D02*
X64436009Y-173488214D01*
X64436009Y-173488214D02*
X64531247Y-173440595D01*
X64531247Y-173440595D02*
X64769342Y-173440595D01*
X64769342Y-173440595D02*
X64864580Y-173488214D01*
X64864580Y-173488214D02*
X64912200Y-173535833D01*
X64912200Y-173535833D02*
X64959819Y-173631071D01*
X64959819Y-173631071D02*
X64959819Y-173916785D01*
X64959819Y-173916785D02*
X64912200Y-174012023D01*
X64912200Y-174012023D02*
X64864580Y-174059642D01*
X65279819Y-178774404D02*
X64279819Y-178774404D01*
X65279819Y-178202976D02*
X64708390Y-178631547D01*
X64279819Y-178202976D02*
X64851247Y-178774404D01*
X112459819Y-113250594D02*
X111459819Y-113250594D01*
X111459819Y-113250594D02*
X111459819Y-113012499D01*
X111459819Y-113012499D02*
X111507438Y-112869642D01*
X111507438Y-112869642D02*
X111602676Y-112774404D01*
X111602676Y-112774404D02*
X111697914Y-112726785D01*
X111697914Y-112726785D02*
X111888390Y-112679166D01*
X111888390Y-112679166D02*
X112031247Y-112679166D01*
X112031247Y-112679166D02*
X112221723Y-112726785D01*
X112221723Y-112726785D02*
X112316961Y-112774404D01*
X112316961Y-112774404D02*
X112412200Y-112869642D01*
X112412200Y-112869642D02*
X112459819Y-113012499D01*
X112459819Y-113012499D02*
X112459819Y-113250594D01*
X112459819Y-111726785D02*
X112459819Y-112298213D01*
X112459819Y-112012499D02*
X111459819Y-112012499D01*
X111459819Y-112012499D02*
X111602676Y-112107737D01*
X111602676Y-112107737D02*
X111697914Y-112202975D01*
X111697914Y-112202975D02*
X111745533Y-112298213D01*
X112779819Y-116584404D02*
X111779819Y-116584404D01*
X112779819Y-116012976D02*
X112208390Y-116441547D01*
X111779819Y-116012976D02*
X112351247Y-116584404D01*
D12*
D11*
X102959819Y-175916785D02*
X101959819Y-175916785D01*
X101959819Y-175916785D02*
X101959819Y-175678690D01*
X101959819Y-175678690D02*
X102007438Y-175535833D01*
X102007438Y-175535833D02*
X102102676Y-175440595D01*
X102102676Y-175440595D02*
X102197914Y-175392976D01*
X102197914Y-175392976D02*
X102388390Y-175345357D01*
X102388390Y-175345357D02*
X102531247Y-175345357D01*
X102531247Y-175345357D02*
X102721723Y-175392976D01*
X102721723Y-175392976D02*
X102816961Y-175440595D01*
X102816961Y-175440595D02*
X102912200Y-175535833D01*
X102912200Y-175535833D02*
X102959819Y-175678690D01*
X102959819Y-175678690D02*
X102959819Y-175916785D01*
X102959819Y-174392976D02*
X102959819Y-174964404D01*
X102959819Y-174678690D02*
X101959819Y-174678690D01*
X101959819Y-174678690D02*
X102102676Y-174773928D01*
X102102676Y-174773928D02*
X102197914Y-174869166D01*
X102197914Y-174869166D02*
X102245533Y-174964404D01*
X101959819Y-173488214D02*
X101959819Y-173964404D01*
X101959819Y-173964404D02*
X102436009Y-174012023D01*
X102436009Y-174012023D02*
X102388390Y-173964404D01*
X102388390Y-173964404D02*
X102340771Y-173869166D01*
X102340771Y-173869166D02*
X102340771Y-173631071D01*
X102340771Y-173631071D02*
X102388390Y-173535833D01*
X102388390Y-173535833D02*
X102436009Y-173488214D01*
X102436009Y-173488214D02*
X102531247Y-173440595D01*
X102531247Y-173440595D02*
X102769342Y-173440595D01*
X102769342Y-173440595D02*
X102864580Y-173488214D01*
X102864580Y-173488214D02*
X102912200Y-173535833D01*
X102912200Y-173535833D02*
X102959819Y-173631071D01*
X102959819Y-173631071D02*
X102959819Y-173869166D01*
X102959819Y-173869166D02*
X102912200Y-173964404D01*
X102912200Y-173964404D02*
X102864580Y-174012023D01*
X103279819Y-178774404D02*
X102279819Y-178774404D01*
X103279819Y-178202976D02*
X102708390Y-178631547D01*
X102279819Y-178202976D02*
X102851247Y-178774404D01*
X64959819Y-128060594D02*
X63959819Y-128060594D01*
X63959819Y-128060594D02*
X63959819Y-127822499D01*
X63959819Y-127822499D02*
X64007438Y-127679642D01*
X64007438Y-127679642D02*
X64102676Y-127584404D01*
X64102676Y-127584404D02*
X64197914Y-127536785D01*
X64197914Y-127536785D02*
X64388390Y-127489166D01*
X64388390Y-127489166D02*
X64531247Y-127489166D01*
X64531247Y-127489166D02*
X64721723Y-127536785D01*
X64721723Y-127536785D02*
X64816961Y-127584404D01*
X64816961Y-127584404D02*
X64912200Y-127679642D01*
X64912200Y-127679642D02*
X64959819Y-127822499D01*
X64959819Y-127822499D02*
X64959819Y-128060594D01*
X63959819Y-126584404D02*
X63959819Y-127060594D01*
X63959819Y-127060594D02*
X64436009Y-127108213D01*
X64436009Y-127108213D02*
X64388390Y-127060594D01*
X64388390Y-127060594D02*
X64340771Y-126965356D01*
X64340771Y-126965356D02*
X64340771Y-126727261D01*
X64340771Y-126727261D02*
X64388390Y-126632023D01*
X64388390Y-126632023D02*
X64436009Y-126584404D01*
X64436009Y-126584404D02*
X64531247Y-126536785D01*
X64531247Y-126536785D02*
X64769342Y-126536785D01*
X64769342Y-126536785D02*
X64864580Y-126584404D01*
X64864580Y-126584404D02*
X64912200Y-126632023D01*
X64912200Y-126632023D02*
X64959819Y-126727261D01*
X64959819Y-126727261D02*
X64959819Y-126965356D01*
X64959819Y-126965356D02*
X64912200Y-127060594D01*
X64912200Y-127060594D02*
X64864580Y-127108213D01*
X65279819Y-131394404D02*
X64279819Y-131394404D01*
X65279819Y-130822976D02*
X64708390Y-131251547D01*
X64279819Y-130822976D02*
X64851247Y-131394404D01*
X131959819Y-127940594D02*
X130959819Y-127940594D01*
X130959819Y-127940594D02*
X130959819Y-127702499D01*
X130959819Y-127702499D02*
X131007438Y-127559642D01*
X131007438Y-127559642D02*
X131102676Y-127464404D01*
X131102676Y-127464404D02*
X131197914Y-127416785D01*
X131197914Y-127416785D02*
X131388390Y-127369166D01*
X131388390Y-127369166D02*
X131531247Y-127369166D01*
X131531247Y-127369166D02*
X131721723Y-127416785D01*
X131721723Y-127416785D02*
X131816961Y-127464404D01*
X131816961Y-127464404D02*
X131912200Y-127559642D01*
X131912200Y-127559642D02*
X131959819Y-127702499D01*
X131959819Y-127702499D02*
X131959819Y-127940594D01*
X131388390Y-126797737D02*
X131340771Y-126892975D01*
X131340771Y-126892975D02*
X131293152Y-126940594D01*
X131293152Y-126940594D02*
X131197914Y-126988213D01*
X131197914Y-126988213D02*
X131150295Y-126988213D01*
X131150295Y-126988213D02*
X131055057Y-126940594D01*
X131055057Y-126940594D02*
X131007438Y-126892975D01*
X131007438Y-126892975D02*
X130959819Y-126797737D01*
X130959819Y-126797737D02*
X130959819Y-126607261D01*
X130959819Y-126607261D02*
X131007438Y-126512023D01*
X131007438Y-126512023D02*
X131055057Y-126464404D01*
X131055057Y-126464404D02*
X131150295Y-126416785D01*
X131150295Y-126416785D02*
X131197914Y-126416785D01*
X131197914Y-126416785D02*
X131293152Y-126464404D01*
X131293152Y-126464404D02*
X131340771Y-126512023D01*
X131340771Y-126512023D02*
X131388390Y-126607261D01*
X131388390Y-126607261D02*
X131388390Y-126797737D01*
X131388390Y-126797737D02*
X131436009Y-126892975D01*
X131436009Y-126892975D02*
X131483628Y-126940594D01*
X131483628Y-126940594D02*
X131578866Y-126988213D01*
X131578866Y-126988213D02*
X131769342Y-126988213D01*
X131769342Y-126988213D02*
X131864580Y-126940594D01*
X131864580Y-126940594D02*
X131912200Y-126892975D01*
X131912200Y-126892975D02*
X131959819Y-126797737D01*
X131959819Y-126797737D02*
X131959819Y-126607261D01*
X131959819Y-126607261D02*
X131912200Y-126512023D01*
X131912200Y-126512023D02*
X131864580Y-126464404D01*
X131864580Y-126464404D02*
X131769342Y-126416785D01*
X131769342Y-126416785D02*
X131578866Y-126416785D01*
X131578866Y-126416785D02*
X131483628Y-126464404D01*
X131483628Y-126464404D02*
X131436009Y-126512023D01*
X131436009Y-126512023D02*
X131388390Y-126607261D01*
X132279819Y-131274404D02*
X131279819Y-131274404D01*
X132279819Y-130702976D02*
X131708390Y-131131547D01*
X131279819Y-130702976D02*
X131851247Y-131274404D01*
X131459819Y-147726785D02*
X130459819Y-147726785D01*
X130459819Y-147726785D02*
X130459819Y-147488690D01*
X130459819Y-147488690D02*
X130507438Y-147345833D01*
X130507438Y-147345833D02*
X130602676Y-147250595D01*
X130602676Y-147250595D02*
X130697914Y-147202976D01*
X130697914Y-147202976D02*
X130888390Y-147155357D01*
X130888390Y-147155357D02*
X131031247Y-147155357D01*
X131031247Y-147155357D02*
X131221723Y-147202976D01*
X131221723Y-147202976D02*
X131316961Y-147250595D01*
X131316961Y-147250595D02*
X131412200Y-147345833D01*
X131412200Y-147345833D02*
X131459819Y-147488690D01*
X131459819Y-147488690D02*
X131459819Y-147726785D01*
X131459819Y-146202976D02*
X131459819Y-146774404D01*
X131459819Y-146488690D02*
X130459819Y-146488690D01*
X130459819Y-146488690D02*
X130602676Y-146583928D01*
X130602676Y-146583928D02*
X130697914Y-146679166D01*
X130697914Y-146679166D02*
X130745533Y-146774404D01*
X130555057Y-145822023D02*
X130507438Y-145774404D01*
X130507438Y-145774404D02*
X130459819Y-145679166D01*
X130459819Y-145679166D02*
X130459819Y-145441071D01*
X130459819Y-145441071D02*
X130507438Y-145345833D01*
X130507438Y-145345833D02*
X130555057Y-145298214D01*
X130555057Y-145298214D02*
X130650295Y-145250595D01*
X130650295Y-145250595D02*
X130745533Y-145250595D01*
X130745533Y-145250595D02*
X130888390Y-145298214D01*
X130888390Y-145298214D02*
X131459819Y-145869642D01*
X131459819Y-145869642D02*
X131459819Y-145250595D01*
X131779819Y-150584404D02*
X130779819Y-150584404D01*
X131779819Y-150012976D02*
X131208390Y-150441547D01*
X130779819Y-150012976D02*
X131351247Y-150584404D01*
X73886905Y-116847319D02*
X73886905Y-115847319D01*
X73886905Y-115847319D02*
X74125000Y-115847319D01*
X74125000Y-115847319D02*
X74267857Y-115894938D01*
X74267857Y-115894938D02*
X74363095Y-115990176D01*
X74363095Y-115990176D02*
X74410714Y-116085414D01*
X74410714Y-116085414D02*
X74458333Y-116275890D01*
X74458333Y-116275890D02*
X74458333Y-116418747D01*
X74458333Y-116418747D02*
X74410714Y-116609223D01*
X74410714Y-116609223D02*
X74363095Y-116704461D01*
X74363095Y-116704461D02*
X74267857Y-116799700D01*
X74267857Y-116799700D02*
X74125000Y-116847319D01*
X74125000Y-116847319D02*
X73886905Y-116847319D01*
X74791667Y-115847319D02*
X75410714Y-115847319D01*
X75410714Y-115847319D02*
X75077381Y-116228271D01*
X75077381Y-116228271D02*
X75220238Y-116228271D01*
X75220238Y-116228271D02*
X75315476Y-116275890D01*
X75315476Y-116275890D02*
X75363095Y-116323509D01*
X75363095Y-116323509D02*
X75410714Y-116418747D01*
X75410714Y-116418747D02*
X75410714Y-116656842D01*
X75410714Y-116656842D02*
X75363095Y-116752080D01*
X75363095Y-116752080D02*
X75315476Y-116799700D01*
X75315476Y-116799700D02*
X75220238Y-116847319D01*
X75220238Y-116847319D02*
X74934524Y-116847319D01*
X74934524Y-116847319D02*
X74839286Y-116799700D01*
X74839286Y-116799700D02*
X74791667Y-116752080D01*
X70553095Y-117167319D02*
X70553095Y-116167319D01*
X71124523Y-117167319D02*
X70695952Y-116595890D01*
X71124523Y-116167319D02*
X70553095Y-116738747D01*
X103109819Y-147416785D02*
X102109819Y-147416785D01*
X102109819Y-147416785D02*
X102109819Y-147178690D01*
X102109819Y-147178690D02*
X102157438Y-147035833D01*
X102157438Y-147035833D02*
X102252676Y-146940595D01*
X102252676Y-146940595D02*
X102347914Y-146892976D01*
X102347914Y-146892976D02*
X102538390Y-146845357D01*
X102538390Y-146845357D02*
X102681247Y-146845357D01*
X102681247Y-146845357D02*
X102871723Y-146892976D01*
X102871723Y-146892976D02*
X102966961Y-146940595D01*
X102966961Y-146940595D02*
X103062200Y-147035833D01*
X103062200Y-147035833D02*
X103109819Y-147178690D01*
X103109819Y-147178690D02*
X103109819Y-147416785D01*
X103109819Y-145892976D02*
X103109819Y-146464404D01*
X103109819Y-146178690D02*
X102109819Y-146178690D01*
X102109819Y-146178690D02*
X102252676Y-146273928D01*
X102252676Y-146273928D02*
X102347914Y-146369166D01*
X102347914Y-146369166D02*
X102395533Y-146464404D01*
X103109819Y-144940595D02*
X103109819Y-145512023D01*
X103109819Y-145226309D02*
X102109819Y-145226309D01*
X102109819Y-145226309D02*
X102252676Y-145321547D01*
X102252676Y-145321547D02*
X102347914Y-145416785D01*
X102347914Y-145416785D02*
X102395533Y-145512023D01*
X103429819Y-150274404D02*
X102429819Y-150274404D01*
X103429819Y-149702976D02*
X102858390Y-150131547D01*
X102429819Y-149702976D02*
X103001247Y-150274404D01*
X83959819Y-128250594D02*
X82959819Y-128250594D01*
X82959819Y-128250594D02*
X82959819Y-128012499D01*
X82959819Y-128012499D02*
X83007438Y-127869642D01*
X83007438Y-127869642D02*
X83102676Y-127774404D01*
X83102676Y-127774404D02*
X83197914Y-127726785D01*
X83197914Y-127726785D02*
X83388390Y-127679166D01*
X83388390Y-127679166D02*
X83531247Y-127679166D01*
X83531247Y-127679166D02*
X83721723Y-127726785D01*
X83721723Y-127726785D02*
X83816961Y-127774404D01*
X83816961Y-127774404D02*
X83912200Y-127869642D01*
X83912200Y-127869642D02*
X83959819Y-128012499D01*
X83959819Y-128012499D02*
X83959819Y-128250594D01*
X82959819Y-126822023D02*
X82959819Y-127012499D01*
X82959819Y-127012499D02*
X83007438Y-127107737D01*
X83007438Y-127107737D02*
X83055057Y-127155356D01*
X83055057Y-127155356D02*
X83197914Y-127250594D01*
X83197914Y-127250594D02*
X83388390Y-127298213D01*
X83388390Y-127298213D02*
X83769342Y-127298213D01*
X83769342Y-127298213D02*
X83864580Y-127250594D01*
X83864580Y-127250594D02*
X83912200Y-127202975D01*
X83912200Y-127202975D02*
X83959819Y-127107737D01*
X83959819Y-127107737D02*
X83959819Y-126917261D01*
X83959819Y-126917261D02*
X83912200Y-126822023D01*
X83912200Y-126822023D02*
X83864580Y-126774404D01*
X83864580Y-126774404D02*
X83769342Y-126726785D01*
X83769342Y-126726785D02*
X83531247Y-126726785D01*
X83531247Y-126726785D02*
X83436009Y-126774404D01*
X83436009Y-126774404D02*
X83388390Y-126822023D01*
X83388390Y-126822023D02*
X83340771Y-126917261D01*
X83340771Y-126917261D02*
X83340771Y-127107737D01*
X83340771Y-127107737D02*
X83388390Y-127202975D01*
X83388390Y-127202975D02*
X83436009Y-127250594D01*
X83436009Y-127250594D02*
X83531247Y-127298213D01*
X84279819Y-131584404D02*
X83279819Y-131584404D01*
X84279819Y-131012976D02*
X83708390Y-131441547D01*
X83279819Y-131012976D02*
X83851247Y-131584404D01*
X64987583Y-110275594D02*
X63987583Y-110275594D01*
X63987583Y-110275594D02*
X63987583Y-110037499D01*
X63987583Y-110037499D02*
X64035202Y-109894642D01*
X64035202Y-109894642D02*
X64130440Y-109799404D01*
X64130440Y-109799404D02*
X64225678Y-109751785D01*
X64225678Y-109751785D02*
X64416154Y-109704166D01*
X64416154Y-109704166D02*
X64559011Y-109704166D01*
X64559011Y-109704166D02*
X64749487Y-109751785D01*
X64749487Y-109751785D02*
X64844725Y-109799404D01*
X64844725Y-109799404D02*
X64939964Y-109894642D01*
X64939964Y-109894642D02*
X64987583Y-110037499D01*
X64987583Y-110037499D02*
X64987583Y-110275594D01*
X64082821Y-109323213D02*
X64035202Y-109275594D01*
X64035202Y-109275594D02*
X63987583Y-109180356D01*
X63987583Y-109180356D02*
X63987583Y-108942261D01*
X63987583Y-108942261D02*
X64035202Y-108847023D01*
X64035202Y-108847023D02*
X64082821Y-108799404D01*
X64082821Y-108799404D02*
X64178059Y-108751785D01*
X64178059Y-108751785D02*
X64273297Y-108751785D01*
X64273297Y-108751785D02*
X64416154Y-108799404D01*
X64416154Y-108799404D02*
X64987583Y-109370832D01*
X64987583Y-109370832D02*
X64987583Y-108751785D01*
X65307583Y-113609404D02*
X64307583Y-113609404D01*
X65307583Y-113037976D02*
X64736154Y-113466547D01*
X64307583Y-113037976D02*
X64879011Y-113609404D01*
%TO.C,D14*%
D13*
X84505000Y-176292500D02*
X86745000Y-176292500D01*
X84505000Y-176412500D02*
X86745000Y-176412500D01*
X84505000Y-176532500D02*
X86745000Y-176532500D01*
X85625000Y-172242500D02*
X85625000Y-172892500D01*
X85625000Y-177782500D02*
X85625000Y-177132500D01*
X84505000Y-172892500D02*
X86745000Y-172892500D01*
X86745000Y-177132500D01*
X84505000Y-177132500D01*
X84505000Y-172892500D01*
%TO.C,D9*%
X65505000Y-147482500D02*
X67745000Y-147482500D01*
X65505000Y-147602500D02*
X67745000Y-147602500D01*
X65505000Y-147722500D02*
X67745000Y-147722500D01*
X66625000Y-143432500D02*
X66625000Y-144082500D01*
X66625000Y-148972500D02*
X66625000Y-148322500D01*
X65505000Y-144082500D02*
X67745000Y-144082500D01*
X67745000Y-148322500D01*
X65505000Y-148322500D01*
X65505000Y-144082500D01*
%TO.C,D4*%
X91045000Y-119512500D02*
X91695000Y-119512500D01*
X92295000Y-118392500D02*
X92295000Y-120632500D01*
X92415000Y-118392500D02*
X92415000Y-120632500D01*
X92535000Y-118392500D02*
X92535000Y-120632500D01*
X96585000Y-119512500D02*
X95935000Y-119512500D01*
X91695000Y-118392500D02*
X95935000Y-118392500D01*
X95935000Y-120632500D01*
X91695000Y-120632500D01*
X91695000Y-118392500D01*
%TO.C,D16*%
X132230000Y-176292500D02*
X134470000Y-176292500D01*
X132230000Y-176412500D02*
X134470000Y-176412500D01*
X132230000Y-176532500D02*
X134470000Y-176532500D01*
X133350000Y-172242500D02*
X133350000Y-172892500D01*
X133350000Y-177782500D02*
X133350000Y-177132500D01*
X132230000Y-172892500D02*
X134470000Y-172892500D01*
X134470000Y-177132500D01*
X132230000Y-177132500D01*
X132230000Y-172892500D01*
%TO.C,SW1*%
X117925000Y-107787500D02*
X117925000Y-103687500D01*
X117925000Y-115887500D02*
X117925000Y-111787500D01*
X120325000Y-115887500D02*
X117925000Y-115887500D01*
X123825000Y-109287500D02*
X123825000Y-110287500D01*
X124325000Y-109787500D02*
X123325000Y-109787500D01*
X125125000Y-115887500D02*
X122525000Y-115887500D01*
X127625000Y-102287500D02*
X127925000Y-101987500D01*
X127925000Y-101987500D02*
X127925000Y-102587500D01*
X127925000Y-102587500D02*
X127625000Y-102287500D01*
X129725000Y-103687500D02*
X117925000Y-103687500D01*
X129725000Y-107787500D02*
X129725000Y-103687500D01*
X129725000Y-111787500D02*
X129725000Y-115887500D01*
X129725000Y-115887500D02*
X127325000Y-115887500D01*
X126825000Y-109787500D02*
G75*
G02*
X120825000Y-109787500I-3000000J0D01*
G01*
X120825000Y-109787500D02*
G75*
G02*
X126825000Y-109787500I3000000J0D01*
G01*
%TO.C,D10*%
X84505000Y-147602500D02*
X86745000Y-147602500D01*
X84505000Y-147722500D02*
X86745000Y-147722500D01*
X84505000Y-147842500D02*
X86745000Y-147842500D01*
X85625000Y-143552500D02*
X85625000Y-144202500D01*
X85625000Y-149092500D02*
X85625000Y-148442500D01*
X84505000Y-144202500D02*
X86745000Y-144202500D01*
X86745000Y-148442500D01*
X84505000Y-148442500D01*
X84505000Y-144202500D01*
%TO.C,D7*%
X103505000Y-128792500D02*
X105745000Y-128792500D01*
X103505000Y-128912500D02*
X105745000Y-128912500D01*
X103505000Y-129032500D02*
X105745000Y-129032500D01*
X104625000Y-124742500D02*
X104625000Y-125392500D01*
X104625000Y-130282500D02*
X104625000Y-129632500D01*
X103505000Y-125392500D02*
X105745000Y-125392500D01*
X105745000Y-129632500D01*
X103505000Y-129632500D01*
X103505000Y-125392500D01*
%TO.C,D13*%
X65505000Y-175982500D02*
X67745000Y-175982500D01*
X65505000Y-176102500D02*
X67745000Y-176102500D01*
X65505000Y-176222500D02*
X67745000Y-176222500D01*
X66625000Y-171932500D02*
X66625000Y-172582500D01*
X66625000Y-177472500D02*
X66625000Y-176822500D01*
X65505000Y-172582500D02*
X67745000Y-172582500D01*
X67745000Y-176822500D01*
X65505000Y-176822500D01*
X65505000Y-172582500D01*
%TO.C,D1*%
X113005000Y-113792500D02*
X115245000Y-113792500D01*
X113005000Y-113912500D02*
X115245000Y-113912500D01*
X113005000Y-114032500D02*
X115245000Y-114032500D01*
X114125000Y-109742500D02*
X114125000Y-110392500D01*
X114125000Y-115282500D02*
X114125000Y-114632500D01*
X113005000Y-110392500D02*
X115245000Y-110392500D01*
X115245000Y-114632500D01*
X113005000Y-114632500D01*
X113005000Y-110392500D01*
D14*
%TO.C, *%
G36*
X118458847Y-154384999D02*
G01*
X118524872Y-154386059D01*
X118560354Y-154391940D01*
X118574746Y-154406693D01*
X118577498Y-154434365D01*
X118577500Y-154435842D01*
X118573741Y-154479825D01*
X118563820Y-154549038D01*
X118549766Y-154629559D01*
X118547603Y-154640842D01*
X118518391Y-154792668D01*
X118494264Y-154921115D01*
X118472284Y-155041995D01*
X118455828Y-155134999D01*
X118440793Y-155212536D01*
X118419015Y-155314455D01*
X118393648Y-155426382D01*
X118372512Y-155514999D01*
X118348083Y-155614942D01*
X118325617Y-155707203D01*
X118307683Y-155781219D01*
X118297183Y-155824999D01*
X118246245Y-156035843D01*
X118197155Y-156230177D01*
X118151675Y-156401249D01*
X118111570Y-156542303D01*
X118098613Y-156584999D01*
X118070598Y-156675361D01*
X118034871Y-156790700D01*
X117995530Y-156917776D01*
X117956675Y-157043350D01*
X117946887Y-157074999D01*
X117910745Y-157189763D01*
X117874378Y-157301573D01*
X117841257Y-157400001D01*
X117814851Y-157474619D01*
X117807129Y-157494999D01*
X117780170Y-157564422D01*
X117744306Y-157657556D01*
X117704800Y-157760703D01*
X117676478Y-157834999D01*
X117640326Y-157929434D01*
X117595611Y-158045251D01*
X117544384Y-158177226D01*
X117488698Y-158320135D01*
X117430603Y-158468754D01*
X117372150Y-158617860D01*
X117315393Y-158762227D01*
X117262381Y-158896633D01*
X117215166Y-159015854D01*
X117175800Y-159114665D01*
X117146335Y-159187842D01*
X117128821Y-159230162D01*
X117126692Y-159234999D01*
X117107957Y-159278720D01*
X117079163Y-159348729D01*
X117044788Y-159434049D01*
X117020594Y-159494999D01*
X116979345Y-159597235D01*
X116934806Y-159703864D01*
X116894028Y-159798144D01*
X116877444Y-159834999D01*
X116793599Y-160018991D01*
X116724435Y-160174251D01*
X116667033Y-160307964D01*
X116618471Y-160427316D01*
X116575829Y-160539493D01*
X116536185Y-160651681D01*
X116496619Y-160771064D01*
X116495349Y-160774999D01*
X116471707Y-160844274D01*
X116449815Y-160901735D01*
X116437069Y-160929727D01*
X116420528Y-160969446D01*
X116417500Y-160986640D01*
X116406711Y-161016693D01*
X116380319Y-161060926D01*
X116376138Y-161066911D01*
X116329062Y-161108885D01*
X116273034Y-161126165D01*
X116221615Y-161116224D01*
X116201235Y-161099500D01*
X116183228Y-161061766D01*
X116172219Y-161014500D01*
X116158319Y-160969645D01*
X116124677Y-160950945D01*
X116109270Y-160948510D01*
X116070075Y-160930364D01*
X116012105Y-160886245D01*
X115941111Y-160821778D01*
X115862847Y-160742588D01*
X115783064Y-160654301D01*
X115707515Y-160562540D01*
X115686403Y-160534999D01*
X115644433Y-160479810D01*
X115585570Y-160403207D01*
X115517583Y-160315269D01*
X115448241Y-160226072D01*
X115447404Y-160224999D01*
X115397013Y-160159632D01*
X115348805Y-160095166D01*
X115299675Y-160027031D01*
X115246517Y-159950658D01*
X115186225Y-159861478D01*
X115115696Y-159754923D01*
X115031822Y-159626422D01*
X114931499Y-159471406D01*
X114862909Y-159364999D01*
X114806905Y-159272419D01*
X114742582Y-159157222D01*
X114677543Y-159033489D01*
X114619390Y-158915299D01*
X114614559Y-158904999D01*
X114576159Y-158824104D01*
X114522720Y-158713547D01*
X114457217Y-158579382D01*
X114382626Y-158427660D01*
X114301922Y-158264434D01*
X114218080Y-158095756D01*
X114137743Y-157934999D01*
X114058634Y-157776838D01*
X113984009Y-157627050D01*
X113916051Y-157490062D01*
X113856944Y-157370302D01*
X113808872Y-157272197D01*
X113774020Y-157200174D01*
X113754570Y-157158660D01*
X113752876Y-157154776D01*
X113719129Y-157074773D01*
X113676818Y-156973706D01*
X113629134Y-156859283D01*
X113579271Y-156739210D01*
X113530422Y-156621197D01*
X113485781Y-156512951D01*
X113448539Y-156422180D01*
X113421889Y-156356591D01*
X113413279Y-156334999D01*
X113380156Y-156254075D01*
X113342338Y-156166313D01*
X113327551Y-156133368D01*
X113280932Y-156024823D01*
X113253941Y-155943755D01*
X113245270Y-155883555D01*
X113253614Y-155837616D01*
X113264858Y-155816223D01*
X113317298Y-155766475D01*
X113381448Y-155747830D01*
X113445737Y-155760554D01*
X113498594Y-155804912D01*
X113502599Y-155810778D01*
X113516518Y-155838946D01*
X113543581Y-155899766D01*
X113581917Y-155988815D01*
X113629657Y-156101672D01*
X113684929Y-156233912D01*
X113745863Y-156381114D01*
X113810590Y-156538854D01*
X113813100Y-156544999D01*
X113891285Y-156733122D01*
X113978287Y-156936787D01*
X114069794Y-157146269D01*
X114161494Y-157351843D01*
X114249076Y-157543784D01*
X114328228Y-157712368D01*
X114358472Y-157774999D01*
X114482055Y-158028553D01*
X114589502Y-158249749D01*
X114682479Y-158442051D01*
X114762653Y-158608919D01*
X114831692Y-158753816D01*
X114891262Y-158880203D01*
X114911439Y-158923403D01*
X114947388Y-158994220D01*
X114999246Y-159088066D01*
X115061029Y-159194496D01*
X115126755Y-159303061D01*
X115151962Y-159343403D01*
X115218214Y-159448418D01*
X115284317Y-159553250D01*
X115344037Y-159648008D01*
X115391141Y-159722805D01*
X115405103Y-159744999D01*
X115462605Y-159830560D01*
X115546246Y-159945963D01*
X115655829Y-160090944D01*
X115791156Y-160265237D01*
X115874049Y-160370419D01*
X115923468Y-160426473D01*
X115986790Y-160489396D01*
X116056480Y-160552752D01*
X116125001Y-160610104D01*
X116184816Y-160655016D01*
X116228390Y-160681053D01*
X116242412Y-160684999D01*
X116263053Y-160666842D01*
X116289175Y-160617433D01*
X116314847Y-160549999D01*
X116367933Y-160397108D01*
X116421804Y-160257371D01*
X116483634Y-160112846D01*
X116532811Y-160004999D01*
X116610733Y-159832846D01*
X116699851Y-159628291D01*
X116797982Y-159396629D01*
X116902943Y-159143155D01*
X117012552Y-158873163D01*
X117124626Y-158591949D01*
X117236985Y-158304808D01*
X117287084Y-158174999D01*
X117333541Y-158054237D01*
X117375940Y-157944290D01*
X117411905Y-157851303D01*
X117439057Y-157781420D01*
X117455017Y-157740788D01*
X117457359Y-157734999D01*
X117471144Y-157699542D01*
X117494901Y-157636371D01*
X117524986Y-157555381D01*
X117557752Y-157466470D01*
X117589556Y-157379533D01*
X117616752Y-157304468D01*
X117635696Y-157251169D01*
X117637829Y-157244999D01*
X117651020Y-157203813D01*
X117671762Y-157136022D01*
X117696464Y-157053436D01*
X117707794Y-157014999D01*
X117733102Y-156929625D01*
X117756050Y-156853787D01*
X117773047Y-156799296D01*
X117777758Y-156784999D01*
X117798065Y-156722716D01*
X117824675Y-156636868D01*
X117854298Y-156538569D01*
X117883643Y-156438934D01*
X117909420Y-156349080D01*
X117928338Y-156280123D01*
X117934658Y-156254999D01*
X117945067Y-156212448D01*
X117963765Y-156138012D01*
X117989014Y-156038524D01*
X118019076Y-155920823D01*
X118052214Y-155791743D01*
X118066833Y-155734999D01*
X118101081Y-155600081D01*
X118132925Y-155470669D01*
X118160575Y-155354350D01*
X118182240Y-155258707D01*
X118196133Y-155191326D01*
X118198957Y-155174999D01*
X118213253Y-155085062D01*
X118228902Y-154989624D01*
X118236425Y-154944999D01*
X118248469Y-154874098D01*
X118264289Y-154780261D01*
X118281102Y-154680013D01*
X118286952Y-154644999D01*
X118304471Y-154539620D01*
X118318387Y-154467302D01*
X118332793Y-154421851D01*
X118351783Y-154397076D01*
X118379452Y-154386783D01*
X118419892Y-154384782D01*
X118458847Y-154384999D01*
G37*
G36*
X112055308Y-158190821D02*
G01*
X112105361Y-158199964D01*
X112147735Y-158219007D01*
X112193296Y-158254821D01*
X112252911Y-158314275D01*
X112256428Y-158317962D01*
X112408339Y-158481557D01*
X112537411Y-158630582D01*
X112651947Y-158775575D01*
X112760249Y-158927071D01*
X112870619Y-159095608D01*
X112876547Y-159104999D01*
X112946045Y-159215133D01*
X113012858Y-159320775D01*
X113072278Y-159414499D01*
X113119597Y-159488878D01*
X113149146Y-159534999D01*
X113182806Y-159591797D01*
X113225573Y-159670879D01*
X113274080Y-159765216D01*
X113324959Y-159867781D01*
X113374844Y-159971545D01*
X113420366Y-160069481D01*
X113458159Y-160154559D01*
X113484854Y-160219752D01*
X113497084Y-160258032D01*
X113497500Y-160262039D01*
X113501325Y-160292823D01*
X113511505Y-160352613D01*
X113526092Y-160431285D01*
X113543140Y-160518717D01*
X113560704Y-160604783D01*
X113576837Y-160679362D01*
X113582225Y-160702746D01*
X113580598Y-160729195D01*
X113572697Y-160774999D01*
X113564720Y-160818743D01*
X113552614Y-160891340D01*
X113538129Y-160982081D01*
X113525326Y-161064999D01*
X113509722Y-161157901D01*
X113493684Y-161236872D01*
X113479182Y-161293093D01*
X113468938Y-161317096D01*
X113437643Y-161337902D01*
X113385656Y-161362903D01*
X113367500Y-161370303D01*
X113312571Y-161393092D01*
X113235193Y-161426993D01*
X113149053Y-161465969D01*
X113117500Y-161480562D01*
X113028817Y-161521546D01*
X112941212Y-161561522D01*
X112869751Y-161593629D01*
X112852213Y-161601357D01*
X112756926Y-161643003D01*
X112572213Y-161556544D01*
X112482631Y-161512400D01*
X112413052Y-161470942D01*
X112351051Y-161422979D01*
X112284202Y-161359318D01*
X112231914Y-161304793D01*
X112169363Y-161240278D01*
X112116731Y-161189626D01*
X112079859Y-161158220D01*
X112064901Y-161150930D01*
X112065021Y-161174267D01*
X112076626Y-161223860D01*
X112095024Y-161282420D01*
X112119009Y-161373356D01*
X112138181Y-161495179D01*
X112153145Y-161651944D01*
X112155818Y-161689805D01*
X112163193Y-161811200D01*
X112166097Y-161903474D01*
X112163739Y-161977338D01*
X112155323Y-162043504D01*
X112140057Y-162112681D01*
X112118759Y-162189999D01*
X112103081Y-162244671D01*
X112081766Y-162319357D01*
X112064513Y-162379998D01*
X112040714Y-162449092D01*
X112015903Y-162497307D01*
X111998253Y-162514222D01*
X111968286Y-162519529D01*
X111906360Y-162527968D01*
X111820304Y-162538553D01*
X111717947Y-162550301D01*
X111667568Y-162555821D01*
X111562765Y-162567513D01*
X111473012Y-162578248D01*
X111405377Y-162587124D01*
X111366927Y-162593237D01*
X111360855Y-162594977D01*
X111339824Y-162590541D01*
X111286705Y-162571321D01*
X111205827Y-162539079D01*
X111101521Y-162495575D01*
X110978116Y-162442572D01*
X110872500Y-162396261D01*
X110823351Y-162368118D01*
X110759427Y-162323126D01*
X110700866Y-162276261D01*
X110645395Y-162230880D01*
X110600782Y-162198203D01*
X110576334Y-162185024D01*
X110575866Y-162184999D01*
X110562413Y-162203752D01*
X110560479Y-162258554D01*
X110569840Y-162347214D01*
X110590272Y-162467545D01*
X110619199Y-162606800D01*
X110629336Y-162695774D01*
X110620098Y-162746800D01*
X110607205Y-162785842D01*
X110587754Y-162853216D01*
X110564702Y-162938401D01*
X110547500Y-163004999D01*
X110519663Y-163115702D01*
X110497467Y-163194970D01*
X110475163Y-163249710D01*
X110447002Y-163286832D01*
X110407236Y-163313242D01*
X110350115Y-163335851D01*
X110269892Y-163361565D01*
X110243931Y-163369807D01*
X110104192Y-163414524D01*
X109997012Y-163448416D01*
X109916761Y-163472565D01*
X109857811Y-163488052D01*
X109814532Y-163495959D01*
X109781296Y-163497367D01*
X109752475Y-163493357D01*
X109722439Y-163485010D01*
X109692892Y-163475669D01*
X109627047Y-163453736D01*
X109573099Y-163433260D01*
X109552771Y-163423931D01*
X109504960Y-163407526D01*
X109482768Y-163404999D01*
X109451777Y-163395697D01*
X109394675Y-163370472D01*
X109320027Y-163333342D01*
X109248406Y-163294999D01*
X109168958Y-163251367D01*
X109103507Y-163215924D01*
X109059260Y-163192539D01*
X109043500Y-163184999D01*
X109025557Y-163174775D01*
X108980021Y-163146619D01*
X108912900Y-163104304D01*
X108830200Y-163051603D01*
X108787229Y-163024042D01*
X108698203Y-162968408D01*
X108620419Y-162922764D01*
X108560241Y-162890620D01*
X108524036Y-162875481D01*
X108517137Y-162875223D01*
X108503547Y-162901808D01*
X108497517Y-162949581D01*
X108497500Y-162952356D01*
X108490058Y-163007682D01*
X108472500Y-163048154D01*
X108448939Y-163069820D01*
X108399013Y-163110904D01*
X108328407Y-163166890D01*
X108242807Y-163233261D01*
X108161299Y-163295379D01*
X107875098Y-163511802D01*
X107791299Y-163468840D01*
X107759634Y-163452464D01*
X107729346Y-163436253D01*
X107695237Y-163417160D01*
X107652110Y-163392136D01*
X107594766Y-163358130D01*
X107518008Y-163312095D01*
X107416637Y-163250982D01*
X107307500Y-163185060D01*
X107194369Y-163114604D01*
X107074998Y-163036596D01*
X106954470Y-162954735D01*
X106837870Y-162872718D01*
X106730279Y-162794243D01*
X106636783Y-162723009D01*
X106562464Y-162662713D01*
X106512406Y-162617053D01*
X106492630Y-162592298D01*
X106464057Y-162552294D01*
X106434137Y-162552141D01*
X106405508Y-162590155D01*
X106372112Y-162655357D01*
X106329252Y-162735090D01*
X106283138Y-162818238D01*
X106239980Y-162893686D01*
X106205986Y-162950320D01*
X106194381Y-162968086D01*
X106168905Y-163007664D01*
X106157539Y-163031073D01*
X106157500Y-163031613D01*
X106148150Y-163052730D01*
X106123453Y-163098922D01*
X106088435Y-163160842D01*
X106082500Y-163171086D01*
X106058445Y-163210235D01*
X106029625Y-163252016D01*
X105993100Y-163299839D01*
X105945932Y-163357117D01*
X105885182Y-163427261D01*
X105807911Y-163513683D01*
X105711179Y-163619795D01*
X105592048Y-163749008D01*
X105487813Y-163861429D01*
X105437774Y-163907986D01*
X105359304Y-163971888D01*
X105257896Y-164049289D01*
X105139047Y-164136345D01*
X105008250Y-164229210D01*
X104871000Y-164324040D01*
X104732793Y-164416990D01*
X104599122Y-164504214D01*
X104475483Y-164581867D01*
X104367370Y-164646105D01*
X104362540Y-164648856D01*
X104253517Y-164710835D01*
X104169831Y-164758495D01*
X104102028Y-164797256D01*
X104040654Y-164832540D01*
X103976256Y-164869768D01*
X103899382Y-164914360D01*
X103887500Y-164921258D01*
X103811300Y-164961626D01*
X103711221Y-165009219D01*
X103601017Y-165057721D01*
X103507500Y-165095783D01*
X103409499Y-165134075D01*
X103318677Y-165169959D01*
X103244983Y-165199479D01*
X103198364Y-165218678D01*
X103197500Y-165219048D01*
X103139737Y-165243426D01*
X103091518Y-165263129D01*
X103087500Y-165264711D01*
X103058034Y-165277950D01*
X102998670Y-165305963D01*
X102915401Y-165345873D01*
X102814225Y-165394803D01*
X102701135Y-165449873D01*
X102669027Y-165465573D01*
X102495018Y-165552259D01*
X102345578Y-165629839D01*
X102222987Y-165697005D01*
X102129524Y-165752447D01*
X102067468Y-165794855D01*
X102039100Y-165822921D01*
X102037500Y-165828294D01*
X102047929Y-165855118D01*
X102074173Y-165900407D01*
X102087500Y-165920702D01*
X102125288Y-165986305D01*
X102133793Y-166037652D01*
X102112899Y-166087859D01*
X102085722Y-166123464D01*
X102028006Y-166172245D01*
X101969191Y-166181169D01*
X101907214Y-166150368D01*
X101890420Y-166135953D01*
X101855076Y-166096483D01*
X101837832Y-166064043D01*
X101837500Y-166060812D01*
X101825520Y-166033240D01*
X101794040Y-165985521D01*
X101749746Y-165927745D01*
X101747500Y-165924999D01*
X101702570Y-165865584D01*
X101670310Y-165814069D01*
X101657512Y-165781337D01*
X101657500Y-165780749D01*
X101647927Y-165741055D01*
X101624437Y-165688700D01*
X101619946Y-165680607D01*
X101590773Y-165629685D01*
X101550437Y-165559329D01*
X101507799Y-165484999D01*
X101460227Y-165398505D01*
X101411575Y-165304394D01*
X101378001Y-165234999D01*
X101352747Y-165179966D01*
X101329097Y-165128019D01*
X101303670Y-165071617D01*
X101273084Y-165003218D01*
X101233960Y-164915281D01*
X101182914Y-164800265D01*
X101167274Y-164764999D01*
X101125076Y-164672842D01*
X101080046Y-164579274D01*
X101040345Y-164501144D01*
X101031661Y-164484999D01*
X100943132Y-164324362D01*
X100847747Y-164153132D01*
X100749184Y-163977772D01*
X100651121Y-163804741D01*
X100557237Y-163640501D01*
X100471211Y-163491513D01*
X100396720Y-163364239D01*
X100337442Y-163265139D01*
X100333783Y-163259138D01*
X100279200Y-163169078D01*
X100232927Y-163091394D01*
X100198606Y-163032308D01*
X100179879Y-162998042D01*
X100177500Y-162992225D01*
X100167011Y-162970057D01*
X100141370Y-162930486D01*
X100137476Y-162924965D01*
X100106152Y-162877439D01*
X100065257Y-162810821D01*
X100030758Y-162751877D01*
X100004262Y-162706444D01*
X99960081Y-162631855D01*
X99901243Y-162533174D01*
X99830779Y-162415465D01*
X99751715Y-162283789D01*
X99667083Y-162143211D01*
X99613864Y-162054999D01*
X99522072Y-161901733D01*
X99429796Y-161745396D01*
X99340998Y-161592863D01*
X99259642Y-161451011D01*
X99189688Y-161326715D01*
X99135100Y-161226853D01*
X99118303Y-161194999D01*
X99014054Y-160994484D01*
X98924834Y-160823636D01*
X98847459Y-160676507D01*
X98778747Y-160547150D01*
X98715511Y-160429618D01*
X98654569Y-160317965D01*
X98592736Y-160206243D01*
X98526828Y-160088506D01*
X98507161Y-160053565D01*
X98444759Y-159941205D01*
X98388706Y-159837248D01*
X98342236Y-159747934D01*
X98308581Y-159679503D01*
X98290971Y-159638195D01*
X98289618Y-159633565D01*
X98274765Y-159571256D01*
X98258900Y-159504999D01*
X98227804Y-159375019D01*
X98205382Y-159278069D01*
X98190990Y-159208280D01*
X98183987Y-159159781D01*
X98183730Y-159126701D01*
X98189577Y-159103172D01*
X98200885Y-159083323D01*
X98211206Y-159069150D01*
X98261368Y-159027267D01*
X98324410Y-159007579D01*
X98384933Y-159013273D01*
X98410889Y-159027812D01*
X98427273Y-159043136D01*
X98441814Y-159062830D01*
X98456239Y-159092001D01*
X98472277Y-159135755D01*
X98491658Y-159199199D01*
X98516110Y-159287439D01*
X98547361Y-159405582D01*
X98575812Y-159514999D01*
X98593361Y-159566890D01*
X98624613Y-159637726D01*
X98671408Y-159731166D01*
X98735588Y-159850872D01*
X98818993Y-160000504D01*
X98827186Y-160014999D01*
X98874095Y-160100106D01*
X98933926Y-160211984D01*
X99001911Y-160341526D01*
X99073283Y-160479629D01*
X99143274Y-160617185D01*
X99162293Y-160654999D01*
X99261216Y-160851611D01*
X99349894Y-161026587D01*
X99427104Y-161177569D01*
X99491626Y-161302197D01*
X99542237Y-161398112D01*
X99577715Y-161462956D01*
X99596840Y-161494370D01*
X99597328Y-161494999D01*
X99616917Y-161524448D01*
X99645476Y-161572299D01*
X99652710Y-161584999D01*
X99674882Y-161623256D01*
X99713857Y-161689410D01*
X99765842Y-161777068D01*
X99827044Y-161879836D01*
X99893668Y-161991322D01*
X99907847Y-162014999D01*
X99986844Y-162147181D01*
X100072210Y-162290554D01*
X100156923Y-162433287D01*
X100233960Y-162563552D01*
X100287785Y-162654999D01*
X100361925Y-162781324D01*
X100446542Y-162925429D01*
X100531829Y-163070618D01*
X100607981Y-163200194D01*
X100616684Y-163214999D01*
X100697003Y-163352884D01*
X100777833Y-163494437D01*
X100863199Y-163646872D01*
X100957126Y-163817405D01*
X101063640Y-164013250D01*
X101113211Y-164104999D01*
X101159887Y-164190423D01*
X101210293Y-164281000D01*
X101246589Y-164344999D01*
X101282334Y-164409118D01*
X101310864Y-164463820D01*
X101323861Y-164492129D01*
X101373761Y-164617742D01*
X101431493Y-164752190D01*
X101494535Y-164890611D01*
X101560367Y-165028144D01*
X101626469Y-165159928D01*
X101690318Y-165281100D01*
X101749394Y-165386800D01*
X101801177Y-165472165D01*
X101843144Y-165532335D01*
X101872775Y-165562448D01*
X101880204Y-165564999D01*
X101904047Y-165556004D01*
X101954187Y-165531869D01*
X102021952Y-165496870D01*
X102062202Y-165475293D01*
X102194839Y-165404622D01*
X102340964Y-165329016D01*
X102494401Y-165251469D01*
X102648971Y-165174978D01*
X102798496Y-165102540D01*
X102936797Y-165037150D01*
X103057696Y-164981806D01*
X103155016Y-164939502D01*
X103217500Y-164914998D01*
X103287212Y-164888726D01*
X103353835Y-164861099D01*
X103362920Y-164857027D01*
X103414882Y-164833463D01*
X103487014Y-164800913D01*
X103557500Y-164769211D01*
X103624872Y-164736139D01*
X103714872Y-164688023D01*
X103816232Y-164631065D01*
X103917687Y-164571467D01*
X103927500Y-164565542D01*
X104024920Y-164506903D01*
X104119666Y-164450475D01*
X104201746Y-164402170D01*
X104261168Y-164367902D01*
X104267500Y-164364344D01*
X104312596Y-164336596D01*
X104384001Y-164289560D01*
X104475618Y-164227396D01*
X104581349Y-164154266D01*
X104695097Y-164074330D01*
X104755013Y-164031723D01*
X104867437Y-163951181D01*
X104959834Y-163883647D01*
X105037640Y-163824071D01*
X105106293Y-163767404D01*
X105171230Y-163708598D01*
X105237890Y-163642603D01*
X105311710Y-163564370D01*
X105398128Y-163468851D01*
X105502581Y-163350996D01*
X105567500Y-163277311D01*
X105624269Y-163211200D01*
X105672789Y-163151725D01*
X105705308Y-163108504D01*
X105712048Y-163098010D01*
X105730109Y-163062859D01*
X105757423Y-163005814D01*
X105789552Y-162936636D01*
X105822058Y-162865085D01*
X105850505Y-162800922D01*
X105870456Y-162753908D01*
X105877500Y-162734039D01*
X105885218Y-162713254D01*
X105905558Y-162665980D01*
X105934294Y-162602010D01*
X105937500Y-162594999D01*
X105966877Y-162529619D01*
X105988264Y-162479665D01*
X105997420Y-162455070D01*
X105997500Y-162454400D01*
X106005508Y-162432606D01*
X106026216Y-162386194D01*
X106047500Y-162341157D01*
X106080201Y-162269490D01*
X106093860Y-162223951D01*
X106088736Y-162195633D01*
X106065087Y-162175628D01*
X106052500Y-162168951D01*
X106012358Y-162147367D01*
X105951503Y-162112952D01*
X105887500Y-162075730D01*
X105792060Y-162019355D01*
X105719940Y-161978728D01*
X105661502Y-161951474D01*
X105607108Y-161935218D01*
X105547120Y-161927585D01*
X105471900Y-161926199D01*
X105371812Y-161928686D01*
X105299942Y-161930926D01*
X105080106Y-161940247D01*
X104863229Y-161954601D01*
X104656655Y-161973227D01*
X104467727Y-161995364D01*
X104303788Y-162020252D01*
X104172181Y-162047129D01*
X104167500Y-162048283D01*
X104063547Y-162073920D01*
X103981567Y-162093510D01*
X103904780Y-162110935D01*
X103816411Y-162130078D01*
X103787500Y-162136234D01*
X103694853Y-162158406D01*
X103583214Y-162188782D01*
X103471280Y-162222166D01*
X103427500Y-162236224D01*
X103274032Y-162287388D01*
X103127577Y-162337188D01*
X102994374Y-162383433D01*
X102880661Y-162423932D01*
X102792677Y-162456494D01*
X102737500Y-162478561D01*
X102679773Y-162503577D01*
X102631563Y-162524228D01*
X102627500Y-162525946D01*
X102585255Y-162543958D01*
X102525039Y-162569849D01*
X102497500Y-162581743D01*
X102437861Y-162607103D01*
X102355415Y-162641601D01*
X102264401Y-162679292D01*
X102227500Y-162694459D01*
X102126527Y-162736803D01*
X102018216Y-162783734D01*
X101922155Y-162826728D01*
X101900717Y-162836623D01*
X101831868Y-162868330D01*
X101778487Y-162892227D01*
X101749616Y-162904289D01*
X101747112Y-162904999D01*
X101726917Y-162912686D01*
X101680304Y-162932890D01*
X101617156Y-162961321D01*
X101613895Y-162962812D01*
X101524802Y-163003402D01*
X101427872Y-163047324D01*
X101367500Y-163074539D01*
X101292917Y-163108260D01*
X101222859Y-163140286D01*
X101182338Y-163159081D01*
X101118294Y-163178964D01*
X101044677Y-163188410D01*
X101032401Y-163188539D01*
X100969031Y-163181346D01*
X100925601Y-163156382D01*
X100902661Y-163131184D01*
X100862859Y-163055919D01*
X100861141Y-162981259D01*
X100895725Y-162911091D01*
X100964830Y-162849301D01*
X101052089Y-162805211D01*
X101125435Y-162776275D01*
X101192965Y-162748828D01*
X101227500Y-162734237D01*
X101279116Y-162712978D01*
X101350507Y-162685125D01*
X101407500Y-162663670D01*
X101587812Y-162590460D01*
X101775175Y-162500755D01*
X101979429Y-162389756D01*
X102035091Y-162357647D01*
X102119894Y-162308492D01*
X102191369Y-162267575D01*
X102242913Y-162238639D01*
X102267922Y-162225426D01*
X102269177Y-162224999D01*
X102292683Y-162214076D01*
X102344975Y-162183149D01*
X102421948Y-162134976D01*
X102519498Y-162072317D01*
X102633520Y-161997932D01*
X102759909Y-161914581D01*
X102894562Y-161825023D01*
X103033374Y-161732018D01*
X103172240Y-161638325D01*
X103307055Y-161546705D01*
X103433716Y-161459916D01*
X103548118Y-161380719D01*
X103646155Y-161311873D01*
X103723725Y-161256138D01*
X103776722Y-161216273D01*
X103801020Y-161195066D01*
X103836844Y-161151204D01*
X103864449Y-161119891D01*
X103889076Y-161091640D01*
X103929023Y-161043298D01*
X103967912Y-160994999D01*
X104010736Y-160941648D01*
X104043486Y-160901689D01*
X104057946Y-160884999D01*
X104074893Y-160865816D01*
X104110337Y-160824050D01*
X104157293Y-160767946D01*
X104167946Y-160755135D01*
X104219022Y-160694085D01*
X104262625Y-160642769D01*
X104290418Y-160610982D01*
X104292798Y-160608408D01*
X104310396Y-160581238D01*
X104341150Y-160525310D01*
X104381152Y-160448044D01*
X104426494Y-160356857D01*
X104440373Y-160328271D01*
X104512649Y-160178629D01*
X104569707Y-160059583D01*
X104613462Y-159965582D01*
X104645830Y-159891077D01*
X104668725Y-159830518D01*
X104684063Y-159778355D01*
X104693759Y-159729038D01*
X104699726Y-159677019D01*
X104703882Y-159616746D01*
X104707455Y-159554264D01*
X104721429Y-159314999D01*
X104533607Y-159131419D01*
X104445217Y-159048626D01*
X104370020Y-158985350D01*
X104312918Y-158945514D01*
X104286642Y-158933748D01*
X104241490Y-158922656D01*
X104169686Y-158904654D01*
X104083322Y-158882782D01*
X104037500Y-158871100D01*
X103915999Y-158845990D01*
X103766463Y-158824226D01*
X103600784Y-158806793D01*
X103430857Y-158794676D01*
X103268575Y-158788861D01*
X103125833Y-158790332D01*
X103087500Y-158792415D01*
X102978830Y-158801052D01*
X102856486Y-158812844D01*
X102729078Y-158826742D01*
X102605221Y-158841694D01*
X102493526Y-158856649D01*
X102402607Y-158870557D01*
X102341077Y-158882366D01*
X102332500Y-158884535D01*
X102262581Y-158903744D01*
X102195582Y-158922345D01*
X102192500Y-158923208D01*
X102141947Y-158937080D01*
X102067306Y-158957224D01*
X101983164Y-158979707D01*
X101967500Y-158983867D01*
X101853333Y-159015256D01*
X101764913Y-159042583D01*
X101688886Y-159070240D01*
X101627500Y-159095783D01*
X101573345Y-159118529D01*
X101502698Y-159147200D01*
X101464995Y-159162163D01*
X101382666Y-159195541D01*
X101295560Y-159232351D01*
X101264995Y-159245716D01*
X101201248Y-159273702D01*
X101147157Y-159296927D01*
X101127500Y-159305085D01*
X101086224Y-159323163D01*
X101012608Y-159357019D01*
X100910282Y-159404942D01*
X100782880Y-159465218D01*
X100634034Y-159536135D01*
X100467374Y-159615980D01*
X100427500Y-159635142D01*
X100310554Y-159691276D01*
X100187368Y-159750249D01*
X100071067Y-159805787D01*
X99974774Y-159851617D01*
X99957500Y-159859811D01*
X99867394Y-159902646D01*
X99754378Y-159956569D01*
X99631577Y-160015306D01*
X99512118Y-160072586D01*
X99487500Y-160084412D01*
X99355539Y-160147608D01*
X99254398Y-160194905D01*
X99178885Y-160227817D01*
X99123810Y-160247861D01*
X99083981Y-160256552D01*
X99054208Y-160255406D01*
X99029299Y-160245938D01*
X99004065Y-160229665D01*
X98999973Y-160226760D01*
X98950076Y-160174104D01*
X98939664Y-160115102D01*
X98968331Y-160049881D01*
X98986037Y-160030865D01*
X99016488Y-160008468D01*
X99063424Y-159980789D01*
X99130583Y-159945923D01*
X99221704Y-159901967D01*
X99340526Y-159847018D01*
X99490790Y-159779172D01*
X99567500Y-159744891D01*
X99626087Y-159718154D01*
X99709094Y-159679478D01*
X99804912Y-159634301D01*
X99890764Y-159593414D01*
X99995029Y-159543663D01*
X100103259Y-159492298D01*
X100201055Y-159446139D01*
X100260764Y-159418167D01*
X100338691Y-159381632D01*
X100439110Y-159334221D01*
X100548446Y-159282355D01*
X100642780Y-159237404D01*
X100731221Y-159195496D01*
X100806061Y-159160682D01*
X100860247Y-159136197D01*
X100886722Y-159125275D01*
X100887998Y-159124999D01*
X100910515Y-159117534D01*
X100956777Y-159098521D01*
X100987717Y-159084999D01*
X101065839Y-159050194D01*
X101148329Y-159013442D01*
X101167282Y-159004999D01*
X101221867Y-158981743D01*
X101260322Y-158967316D01*
X101269781Y-158964999D01*
X101293370Y-158957697D01*
X101342768Y-158938586D01*
X101404999Y-158912766D01*
X101474694Y-158883138D01*
X101534359Y-158857932D01*
X101567500Y-158844088D01*
X101606008Y-158829891D01*
X101664271Y-158811190D01*
X101746789Y-158786654D01*
X101858064Y-158754951D01*
X102002596Y-158714752D01*
X102037500Y-158705133D01*
X102104293Y-158686310D01*
X102163075Y-158669037D01*
X102177500Y-158664591D01*
X102376544Y-158617439D01*
X102547500Y-158596765D01*
X102636409Y-158589052D01*
X102744154Y-158578214D01*
X102849914Y-158566368D01*
X102867500Y-158564247D01*
X102975554Y-158555528D01*
X103115565Y-158551337D01*
X103279735Y-158551798D01*
X103417500Y-158555395D01*
X103586748Y-158563069D01*
X103728543Y-158573947D01*
X103855405Y-158589787D01*
X103979853Y-158612343D01*
X104114410Y-158643369D01*
X104197500Y-158664744D01*
X104269817Y-158681459D01*
X104338935Y-158694349D01*
X104370720Y-158703552D01*
X104408156Y-158724147D01*
X104455928Y-158759871D01*
X104518719Y-158814460D01*
X104601214Y-158891651D01*
X104672271Y-158960236D01*
X104934172Y-159214999D01*
X104947397Y-159526380D01*
X104960623Y-159837762D01*
X104859061Y-160053632D01*
X104819613Y-160138150D01*
X104787313Y-160208632D01*
X104765496Y-160257707D01*
X104757500Y-160277999D01*
X104749351Y-160298333D01*
X104727229Y-160347103D01*
X104694617Y-160416757D01*
X104659330Y-160490748D01*
X104610839Y-160585375D01*
X104557949Y-160674100D01*
X104494423Y-160766094D01*
X104414023Y-160870529D01*
X104336854Y-160964999D01*
X104255726Y-161062070D01*
X104175883Y-161156564D01*
X104103937Y-161240731D01*
X104046497Y-161306820D01*
X104020024Y-161336464D01*
X103962785Y-161391067D01*
X103879580Y-161459770D01*
X103778844Y-161536262D01*
X103669011Y-161614229D01*
X103558516Y-161687362D01*
X103514413Y-161714828D01*
X103402676Y-161785196D01*
X103305897Y-161850508D01*
X103227698Y-161907891D01*
X103171706Y-161954470D01*
X103141547Y-161987370D01*
X103140844Y-162003718D01*
X103148413Y-162004999D01*
X103171346Y-161999473D01*
X103222581Y-161984797D01*
X103292260Y-161963818D01*
X103313413Y-161957302D01*
X103407118Y-161930095D01*
X103505277Y-161904430D01*
X103586796Y-161885818D01*
X103587500Y-161885677D01*
X103746327Y-161853358D01*
X103886529Y-161823286D01*
X103957500Y-161807411D01*
X104182750Y-161763546D01*
X104433869Y-161727425D01*
X104647500Y-161705180D01*
X104765567Y-161694608D01*
X104888301Y-161683054D01*
X105000238Y-161672003D01*
X105077500Y-161663877D01*
X105296727Y-161647120D01*
X105501823Y-161646064D01*
X105688453Y-161660066D01*
X105852279Y-161688484D01*
X105988966Y-161730677D01*
X106094178Y-161786005D01*
X106135686Y-161820425D01*
X106165958Y-161846835D01*
X106216680Y-161887593D01*
X106268972Y-161927865D01*
X106325301Y-161973854D01*
X106368159Y-162015234D01*
X106386898Y-162040643D01*
X106393597Y-162074300D01*
X106401081Y-162137325D01*
X106408206Y-162219136D01*
X106411677Y-162270249D01*
X106418096Y-162354492D01*
X106425701Y-162422502D01*
X106433347Y-162465233D01*
X106437625Y-162475076D01*
X106455801Y-162465304D01*
X106485375Y-162430571D01*
X106499560Y-162410002D01*
X106560480Y-162347344D01*
X106636873Y-162314409D01*
X106717791Y-162315232D01*
X106739048Y-162321785D01*
X106771434Y-162340427D01*
X106828214Y-162379471D01*
X106902735Y-162434097D01*
X106988349Y-162499484D01*
X107038073Y-162538539D01*
X107139907Y-162617469D01*
X107242918Y-162694012D01*
X107341428Y-162764279D01*
X107429755Y-162824377D01*
X107502220Y-162870415D01*
X107553143Y-162898502D01*
X107573655Y-162905443D01*
X107597616Y-162916935D01*
X107636298Y-162944062D01*
X107637500Y-162944999D01*
X107673195Y-162971255D01*
X107702603Y-162984398D01*
X107730699Y-162981019D01*
X107762459Y-162957711D01*
X107802857Y-162911066D01*
X107856871Y-162837676D01*
X107914916Y-162754999D01*
X107979343Y-162658389D01*
X108018463Y-162583998D01*
X108032527Y-162523271D01*
X108021783Y-162467653D01*
X107986481Y-162408592D01*
X107927080Y-162337767D01*
X107906014Y-162309547D01*
X107871876Y-162259190D01*
X107838820Y-162208167D01*
X107799673Y-162148211D01*
X107766489Y-162100346D01*
X107749204Y-162078167D01*
X107702265Y-162016156D01*
X107653940Y-161933428D01*
X107613973Y-161847686D01*
X107598886Y-161804999D01*
X107578145Y-161738744D01*
X107550188Y-161653974D01*
X107523131Y-161574999D01*
X107485122Y-161459172D01*
X107464218Y-161371755D01*
X107460724Y-161304851D01*
X107474950Y-161250569D01*
X107507202Y-161201014D01*
X107539031Y-161166544D01*
X107583304Y-161128502D01*
X107627784Y-161110358D01*
X107690696Y-161105351D01*
X107704038Y-161105318D01*
X107774733Y-161110039D01*
X107825963Y-161128404D01*
X107876878Y-161166774D01*
X107923509Y-161206604D01*
X107959741Y-161235349D01*
X107968589Y-161241455D01*
X107990113Y-161264157D01*
X108026905Y-161312014D01*
X108072981Y-161376292D01*
X108122358Y-161448259D01*
X108169052Y-161519180D01*
X108207078Y-161580322D01*
X108230455Y-161622954D01*
X108231379Y-161624999D01*
X108253707Y-161679300D01*
X108277472Y-161742183D01*
X108278481Y-161744999D01*
X108304673Y-161814978D01*
X108332526Y-161884967D01*
X108332539Y-161884999D01*
X108364139Y-161962220D01*
X108385736Y-162018680D01*
X108403170Y-162070348D01*
X108417714Y-162117855D01*
X108453207Y-162186005D01*
X108521610Y-162268587D01*
X108619666Y-162362940D01*
X108744122Y-162466403D01*
X108891721Y-162576317D01*
X109059208Y-162690020D01*
X109243329Y-162804853D01*
X109297500Y-162836893D01*
X109381073Y-162884810D01*
X109461350Y-162929230D01*
X109525722Y-162963238D01*
X109546601Y-162973518D01*
X109601749Y-162991868D01*
X109678717Y-163007770D01*
X109767644Y-163020359D01*
X109858670Y-163028770D01*
X109941935Y-163032136D01*
X110007578Y-163029591D01*
X110045738Y-163020270D01*
X110049088Y-163017641D01*
X110069034Y-162979418D01*
X110089613Y-162911318D01*
X110108954Y-162823383D01*
X110125190Y-162725658D01*
X110136452Y-162628187D01*
X110140870Y-162541013D01*
X110140754Y-162524999D01*
X110122428Y-162256633D01*
X110079782Y-161974280D01*
X110015835Y-161692020D01*
X109933603Y-161423935D01*
X109869386Y-161258336D01*
X109825954Y-161149255D01*
X109795006Y-161056015D01*
X109779089Y-160986705D01*
X109777500Y-160966801D01*
X109795785Y-160878908D01*
X109847477Y-160809463D01*
X109926072Y-160765470D01*
X110007865Y-160758104D01*
X110087449Y-160786109D01*
X110156396Y-160845342D01*
X110189620Y-160895020D01*
X110220714Y-160952989D01*
X110262241Y-161030049D01*
X110305546Y-161110143D01*
X110308176Y-161114999D01*
X110354844Y-161201682D01*
X110403533Y-161293000D01*
X110442694Y-161367260D01*
X110489463Y-161437419D01*
X110563308Y-161524459D01*
X110658289Y-161622677D01*
X110768469Y-161726367D01*
X110887911Y-161829823D01*
X111010676Y-161927340D01*
X111074161Y-161974025D01*
X111134354Y-162010579D01*
X111210492Y-162047834D01*
X111293644Y-162082550D01*
X111374879Y-162111483D01*
X111445266Y-162131393D01*
X111495873Y-162139037D01*
X111515899Y-162134370D01*
X111527526Y-162107034D01*
X111542500Y-162050214D01*
X111558325Y-161973998D01*
X111565236Y-161934999D01*
X111582526Y-161834123D01*
X111601080Y-161729329D01*
X111617417Y-161640210D01*
X111620302Y-161624999D01*
X111635051Y-161538252D01*
X111641632Y-161464542D01*
X111639070Y-161393408D01*
X111626392Y-161314391D01*
X111602624Y-161217030D01*
X111572341Y-161109859D01*
X111545463Y-161021077D01*
X111518288Y-160940714D01*
X111487670Y-160861598D01*
X111450462Y-160776560D01*
X111403518Y-160678432D01*
X111343691Y-160560042D01*
X111267835Y-160414222D01*
X111262996Y-160404999D01*
X111220930Y-160336127D01*
X111159951Y-160250486D01*
X111088956Y-160160061D01*
X111031137Y-160092568D01*
X110948113Y-159995474D01*
X110879677Y-159903326D01*
X110816791Y-159802675D01*
X110750417Y-159680073D01*
X110739171Y-159658112D01*
X110688665Y-159558221D01*
X110654217Y-159486622D01*
X110633541Y-159436063D01*
X110624351Y-159399291D01*
X110624359Y-159369054D01*
X110631279Y-159338099D01*
X110634652Y-159326616D01*
X110676768Y-159244992D01*
X110743181Y-159182337D01*
X110807964Y-159153095D01*
X110853454Y-159154442D01*
X110912299Y-159171434D01*
X110928582Y-159178529D01*
X110964631Y-159199734D01*
X110998789Y-159230841D01*
X111036208Y-159278343D01*
X111082043Y-159348733D01*
X111137578Y-159441868D01*
X111195209Y-159535444D01*
X111261354Y-159632066D01*
X111339677Y-159736359D01*
X111433847Y-159852949D01*
X111547531Y-159986462D01*
X111684395Y-160141523D01*
X111750907Y-160215556D01*
X111783436Y-160251856D01*
X111831234Y-160305472D01*
X111875747Y-160355556D01*
X111925040Y-160409379D01*
X111996514Y-160485154D01*
X112084041Y-160576576D01*
X112181490Y-160677340D01*
X112282731Y-160781141D01*
X112381634Y-160881674D01*
X112472070Y-160972635D01*
X112547908Y-161047718D01*
X112563027Y-161062453D01*
X112673728Y-161169908D01*
X112790614Y-161135791D01*
X112859411Y-161114398D01*
X112916231Y-161094418D01*
X112942228Y-161083337D01*
X112990946Y-161067371D01*
X113013228Y-161064999D01*
X113048667Y-161060802D01*
X113073629Y-161045020D01*
X113088747Y-161012865D01*
X113094651Y-160959547D01*
X113091974Y-160880279D01*
X113081346Y-160770272D01*
X113067300Y-160654999D01*
X113051229Y-160531463D01*
X113036998Y-160434632D01*
X113021865Y-160355097D01*
X113003086Y-160283453D01*
X112977920Y-160210294D01*
X112943623Y-160126212D01*
X112897454Y-160021802D01*
X112855982Y-159930216D01*
X112833184Y-159878478D01*
X112819383Y-159844242D01*
X112817500Y-159837710D01*
X112807426Y-159817087D01*
X112779736Y-159768846D01*
X112738224Y-159699155D01*
X112686687Y-159614181D01*
X112628920Y-159520094D01*
X112568718Y-159423060D01*
X112509878Y-159329248D01*
X112456195Y-159244826D01*
X112411464Y-159175962D01*
X112396135Y-159152976D01*
X112342336Y-159080876D01*
X112267954Y-158991566D01*
X112181721Y-158895046D01*
X112092371Y-158801321D01*
X112066720Y-158775693D01*
X111963181Y-158670782D01*
X111887691Y-158586621D01*
X111837484Y-158518456D01*
X111809790Y-158461537D01*
X111801844Y-158411112D01*
X111810877Y-158362429D01*
X111816818Y-158346645D01*
X111850226Y-158291205D01*
X111897809Y-158238016D01*
X111904173Y-158232452D01*
X111951733Y-158199285D01*
X111999151Y-158187787D01*
X112055308Y-158190821D01*
G37*
G36*
X119282626Y-160625858D02*
G01*
X119326032Y-160670083D01*
X119356177Y-160721015D01*
X119366200Y-160750761D01*
X119362868Y-160783507D01*
X119343009Y-160825178D01*
X119303452Y-160881702D01*
X119241023Y-160959004D01*
X119207500Y-160998764D01*
X119148785Y-161068769D01*
X119091212Y-161138856D01*
X119047500Y-161193527D01*
X119007799Y-161243666D01*
X118976034Y-161282344D01*
X118966908Y-161292778D01*
X118947606Y-161315937D01*
X118908747Y-161364266D01*
X118855396Y-161431411D01*
X118792619Y-161511017D01*
X118770292Y-161539455D01*
X118689125Y-161640187D01*
X118623552Y-161714272D01*
X118566950Y-161768321D01*
X118512691Y-161808948D01*
X118480884Y-161828288D01*
X118413195Y-161867782D01*
X118325891Y-161920199D01*
X118233113Y-161977005D01*
X118187500Y-162005381D01*
X118011039Y-162115720D01*
X117864770Y-162206795D01*
X117745119Y-162280791D01*
X117648514Y-162339893D01*
X117571382Y-162386284D01*
X117510150Y-162422150D01*
X117461246Y-162449673D01*
X117457500Y-162451722D01*
X117383482Y-162493111D01*
X117310816Y-162535357D01*
X117272897Y-162558362D01*
X117225524Y-162586704D01*
X117193935Y-162603248D01*
X117188473Y-162604999D01*
X117168004Y-162614510D01*
X117121616Y-162639940D01*
X117057695Y-162676632D01*
X117026423Y-162694999D01*
X116958040Y-162735068D01*
X116904163Y-162765959D01*
X116872912Y-162783045D01*
X116868411Y-162784999D01*
X116849811Y-162794287D01*
X116803666Y-162819511D01*
X116737129Y-162856712D01*
X116665063Y-162897537D01*
X116574769Y-162948886D01*
X116487234Y-162998515D01*
X116414239Y-163039756D01*
X116377500Y-163060396D01*
X116312805Y-163098070D01*
X116253682Y-163134921D01*
X116234412Y-163147858D01*
X116194682Y-163173505D01*
X116170868Y-163184958D01*
X116170292Y-163184999D01*
X116148369Y-163194367D01*
X116103362Y-163218541D01*
X116062329Y-163242151D01*
X115986739Y-163286234D01*
X115907274Y-163331857D01*
X115876449Y-163349306D01*
X115826741Y-163377523D01*
X115751452Y-163420600D01*
X115659615Y-163473353D01*
X115560266Y-163530598D01*
X115527500Y-163549517D01*
X115264587Y-163699958D01*
X115003918Y-163846372D01*
X114777500Y-163971057D01*
X114717756Y-164003640D01*
X114659525Y-164035556D01*
X114593459Y-164071953D01*
X114510214Y-164117978D01*
X114412500Y-164172097D01*
X114354599Y-164203859D01*
X114275916Y-164246606D01*
X114190948Y-164292469D01*
X114167500Y-164305068D01*
X114079267Y-164353136D01*
X113972886Y-164412150D01*
X113864790Y-164472954D01*
X113807500Y-164505597D01*
X113692751Y-164571311D01*
X113598899Y-164624863D01*
X113512184Y-164674069D01*
X113418851Y-164726748D01*
X113361837Y-164758838D01*
X113310765Y-164787897D01*
X113235370Y-164831206D01*
X113145887Y-164882872D01*
X113054246Y-164936011D01*
X112970475Y-164984400D01*
X112900047Y-165024513D01*
X112849682Y-165052564D01*
X112826099Y-165064769D01*
X112825283Y-165064999D01*
X112805743Y-165075085D01*
X112756950Y-165103423D01*
X112683614Y-165147132D01*
X112590443Y-165203333D01*
X112482148Y-165269145D01*
X112363438Y-165341687D01*
X112239021Y-165418080D01*
X112113608Y-165495442D01*
X111991908Y-165570894D01*
X111878630Y-165641556D01*
X111778483Y-165704546D01*
X111747500Y-165724188D01*
X111629391Y-165798790D01*
X111523778Y-165864206D01*
X111424685Y-165923745D01*
X111326136Y-165980719D01*
X111222158Y-166038436D01*
X111106775Y-166100208D01*
X110974012Y-166169344D01*
X110817895Y-166249154D01*
X110632448Y-166342948D01*
X110611904Y-166353303D01*
X110439082Y-166440407D01*
X110297116Y-166512100D01*
X110181146Y-166570980D01*
X110086313Y-166619644D01*
X110007756Y-166660692D01*
X109940615Y-166696721D01*
X109880032Y-166730331D01*
X109821145Y-166764120D01*
X109759095Y-166800687D01*
X109689023Y-166842629D01*
X109627500Y-166879647D01*
X109493653Y-166960019D01*
X109385738Y-167024322D01*
X109295575Y-167077376D01*
X109214985Y-167124001D01*
X109151001Y-167160423D01*
X109090289Y-167197167D01*
X109002137Y-167253822D01*
X108891561Y-167326916D01*
X108763574Y-167412979D01*
X108623191Y-167508539D01*
X108475427Y-167610124D01*
X108325297Y-167714264D01*
X108177815Y-167817487D01*
X108037996Y-167916322D01*
X107910854Y-168007298D01*
X107801404Y-168086943D01*
X107714661Y-168151786D01*
X107679589Y-168178980D01*
X107549649Y-168282139D01*
X107448551Y-168363504D01*
X107373402Y-168425623D01*
X107321304Y-168471048D01*
X107289363Y-168502326D01*
X107274683Y-168522010D01*
X107274370Y-168532648D01*
X107276236Y-168534218D01*
X107289109Y-168536236D01*
X107313835Y-168530703D01*
X107354780Y-168515814D01*
X107416311Y-168489767D01*
X107502795Y-168450758D01*
X107618598Y-168396983D01*
X107692092Y-168362474D01*
X107765395Y-168328373D01*
X107823875Y-168301928D01*
X107858975Y-168286971D01*
X107865038Y-168284999D01*
X107888155Y-168276259D01*
X107944787Y-168250774D01*
X108032650Y-168209641D01*
X108149462Y-168153957D01*
X108292939Y-168084822D01*
X108460796Y-168003332D01*
X108650750Y-167910586D01*
X108860517Y-167807683D01*
X108977500Y-167750114D01*
X109310458Y-167586105D01*
X109610038Y-167438579D01*
X109878731Y-167306316D01*
X110119028Y-167188098D01*
X110333421Y-167082707D01*
X110524402Y-166988924D01*
X110694462Y-166905531D01*
X110846093Y-166831310D01*
X110981787Y-166765042D01*
X111104035Y-166705509D01*
X111215329Y-166651492D01*
X111318161Y-166601772D01*
X111415022Y-166555132D01*
X111508404Y-166510354D01*
X111600798Y-166466218D01*
X111687500Y-166424929D01*
X111774917Y-166383186D01*
X111887098Y-166329377D01*
X112012818Y-166268898D01*
X112140855Y-166207145D01*
X112217500Y-166170092D01*
X112385488Y-166089133D01*
X112526853Y-166021723D01*
X112639657Y-165968762D01*
X112721962Y-165931154D01*
X112771828Y-165909803D01*
X112786697Y-165904999D01*
X112807515Y-165897298D01*
X112854621Y-165877063D01*
X112918021Y-165848594D01*
X112921104Y-165847185D01*
X113056692Y-165785350D01*
X113158554Y-165739330D01*
X113229202Y-165708011D01*
X113271152Y-165690278D01*
X113286697Y-165684999D01*
X113307512Y-165677293D01*
X113354613Y-165657044D01*
X113418006Y-165628555D01*
X113421104Y-165627138D01*
X113492817Y-165594439D01*
X113569278Y-165559866D01*
X113655136Y-165521353D01*
X113755038Y-165476832D01*
X113873636Y-165424237D01*
X114015577Y-165361500D01*
X114185510Y-165286555D01*
X114357500Y-165210799D01*
X114410302Y-165187068D01*
X114484233Y-165153246D01*
X114564210Y-165116238D01*
X114572257Y-165112489D01*
X114641038Y-165080946D01*
X114694780Y-165057284D01*
X114724153Y-165045580D01*
X114726665Y-165044999D01*
X114746353Y-165038367D01*
X114794525Y-165017908D01*
X114873069Y-164982778D01*
X114983870Y-164932132D01*
X115128816Y-164865126D01*
X115134485Y-164862496D01*
X115208193Y-164828600D01*
X115266813Y-164802229D01*
X115301932Y-164787140D01*
X115308090Y-164784999D01*
X115328120Y-164777299D01*
X115375011Y-164756947D01*
X115439313Y-164728060D01*
X115451104Y-164722684D01*
X115543514Y-164680457D01*
X115644837Y-164634145D01*
X115717500Y-164600923D01*
X115806689Y-164560864D01*
X115903254Y-164518583D01*
X115967500Y-164491166D01*
X116047168Y-164457310D01*
X116126452Y-164422899D01*
X116171402Y-164402927D01*
X116223566Y-164380291D01*
X116258859Y-164366726D01*
X116265810Y-164364999D01*
X116288299Y-164357373D01*
X116335629Y-164337644D01*
X116381907Y-164317125D01*
X116449467Y-164287344D01*
X116538527Y-164249234D01*
X116633493Y-164209439D01*
X116667500Y-164195415D01*
X116754555Y-164159502D01*
X116835716Y-164125666D01*
X116898334Y-164099195D01*
X116917500Y-164090916D01*
X117009547Y-164050881D01*
X117096657Y-164013737D01*
X117196759Y-163971867D01*
X117237500Y-163954970D01*
X117329591Y-163915887D01*
X117430520Y-163871657D01*
X117493895Y-163843064D01*
X117557771Y-163814209D01*
X117605822Y-163793422D01*
X117628063Y-163785017D01*
X117628302Y-163784999D01*
X117645383Y-163779106D01*
X117688782Y-163760684D01*
X117761013Y-163728618D01*
X117864590Y-163681792D01*
X117993895Y-163622812D01*
X118057936Y-163594057D01*
X118106287Y-163573356D01*
X118128872Y-163565014D01*
X118129113Y-163564999D01*
X118151009Y-163557523D01*
X118196373Y-163538588D01*
X118222717Y-163526958D01*
X118291410Y-163498346D01*
X118387674Y-163461252D01*
X118501042Y-163419574D01*
X118621049Y-163377209D01*
X118667500Y-163361306D01*
X118724346Y-163340904D01*
X118767500Y-163323895D01*
X118804008Y-163309805D01*
X118867049Y-163286875D01*
X118945303Y-163259198D01*
X118977500Y-163248000D01*
X119128898Y-163194709D01*
X119258690Y-163147204D01*
X119358995Y-163108377D01*
X119367500Y-163104920D01*
X119402451Y-163091404D01*
X119465077Y-163067890D01*
X119545472Y-163038079D01*
X119607500Y-163015270D01*
X119694486Y-162983142D01*
X119770687Y-162954541D01*
X119826188Y-162933212D01*
X119847500Y-162924578D01*
X119884808Y-162910361D01*
X119951002Y-162887126D01*
X120039520Y-162857014D01*
X120143805Y-162822162D01*
X120257295Y-162784711D01*
X120373432Y-162746799D01*
X120485655Y-162710567D01*
X120587406Y-162678152D01*
X120672124Y-162651695D01*
X120733250Y-162633334D01*
X120764225Y-162625209D01*
X120766109Y-162624999D01*
X120817004Y-162642413D01*
X120863101Y-162685647D01*
X120892336Y-162741185D01*
X120896863Y-162771450D01*
X120889344Y-162828176D01*
X120863880Y-162870571D01*
X120814144Y-162903884D01*
X120733809Y-162933362D01*
X120685202Y-162946982D01*
X120600385Y-162969544D01*
X120521358Y-162990769D01*
X120463420Y-163006545D01*
X120457500Y-163008185D01*
X120385768Y-163027429D01*
X120317500Y-163044811D01*
X120182206Y-163078431D01*
X120076977Y-163105963D01*
X119992860Y-163130120D01*
X119920899Y-163153614D01*
X119852141Y-163179157D01*
X119787500Y-163205348D01*
X119752552Y-163218989D01*
X119689932Y-163242626D01*
X119609545Y-163272541D01*
X119547500Y-163295413D01*
X119454723Y-163329554D01*
X119367020Y-163361960D01*
X119296795Y-163388040D01*
X119267500Y-163399011D01*
X119210969Y-163419721D01*
X119131264Y-163448168D01*
X119043051Y-163479132D01*
X119017500Y-163488000D01*
X118935561Y-163516738D01*
X118863627Y-163542655D01*
X118813409Y-163561504D01*
X118802500Y-163565913D01*
X118722319Y-163599270D01*
X118656570Y-163624580D01*
X118583223Y-163650249D01*
X118567500Y-163655561D01*
X118499868Y-163679201D01*
X118427094Y-163706601D01*
X118344002Y-163739936D01*
X118245417Y-163781385D01*
X118126164Y-163833123D01*
X117981066Y-163897326D01*
X117804949Y-163976173D01*
X117801907Y-163977540D01*
X117743706Y-164003126D01*
X117702075Y-164020357D01*
X117688302Y-164024999D01*
X117667487Y-164032704D01*
X117620386Y-164052953D01*
X117556993Y-164081442D01*
X117553895Y-164082859D01*
X117431583Y-164138638D01*
X117341713Y-164179088D01*
X117280511Y-164205863D01*
X117244202Y-164220614D01*
X117229189Y-164224999D01*
X117206700Y-164232624D01*
X117159370Y-164252353D01*
X117113092Y-164272872D01*
X117045532Y-164302653D01*
X116956472Y-164340763D01*
X116861506Y-164380558D01*
X116827500Y-164394582D01*
X116730453Y-164434492D01*
X116655497Y-164465660D01*
X116587665Y-164494404D01*
X116511991Y-164527038D01*
X116457500Y-164550720D01*
X116401949Y-164574510D01*
X116326807Y-164606202D01*
X116257500Y-164635127D01*
X116172404Y-164671001D01*
X116084805Y-164708816D01*
X116027500Y-164734191D01*
X115969846Y-164759984D01*
X115886661Y-164796915D01*
X115789049Y-164840066D01*
X115688114Y-164884517D01*
X115687500Y-164884787D01*
X115577227Y-164933584D01*
X115461215Y-164985479D01*
X115354272Y-165033819D01*
X115280514Y-165067629D01*
X115206681Y-165101487D01*
X115147816Y-165127822D01*
X115112389Y-165142875D01*
X115106074Y-165144999D01*
X115086058Y-165153024D01*
X115037789Y-165174720D01*
X114969106Y-165206514D01*
X114908572Y-165234999D01*
X114829473Y-165272071D01*
X114764653Y-165301726D01*
X114722036Y-165320380D01*
X114709407Y-165324999D01*
X114688011Y-165332711D01*
X114640445Y-165352974D01*
X114576812Y-165381479D01*
X114573895Y-165382812D01*
X114451352Y-165438597D01*
X114329237Y-165493718D01*
X114219669Y-165542727D01*
X114137500Y-165578985D01*
X114081935Y-165603644D01*
X114007563Y-165637184D01*
X113941601Y-165667258D01*
X113877914Y-165695999D01*
X113830142Y-165716679D01*
X113808260Y-165724985D01*
X113808062Y-165724999D01*
X113787662Y-165732806D01*
X113739983Y-165753603D01*
X113673987Y-165783448D01*
X113648876Y-165794999D01*
X113578548Y-165827044D01*
X113523337Y-165851376D01*
X113492268Y-165864048D01*
X113488810Y-165864999D01*
X113467772Y-165872704D01*
X113420266Y-165893011D01*
X113356117Y-165921706D01*
X113348895Y-165924999D01*
X113256378Y-165967245D01*
X113153901Y-166014040D01*
X113086104Y-166044999D01*
X113020861Y-166074316D01*
X112971315Y-166095689D01*
X112947254Y-166104907D01*
X112946605Y-166104999D01*
X112922316Y-166113777D01*
X112863732Y-166139637D01*
X112772379Y-166181864D01*
X112649786Y-166239745D01*
X112497480Y-166312564D01*
X112337500Y-166389687D01*
X112213456Y-166449601D01*
X112087470Y-166510326D01*
X111969467Y-166567086D01*
X111869374Y-166615105D01*
X111807500Y-166644669D01*
X111755148Y-166669936D01*
X111671016Y-166710970D01*
X111559159Y-166765772D01*
X111423636Y-166832347D01*
X111268506Y-166908698D01*
X111097827Y-166992830D01*
X110915657Y-167082744D01*
X110726053Y-167176446D01*
X110637500Y-167220250D01*
X110230668Y-167421458D01*
X109858112Y-167605504D01*
X109518326Y-167773111D01*
X109209809Y-167925001D01*
X108931055Y-168061898D01*
X108680562Y-168184525D01*
X108456824Y-168293604D01*
X108258340Y-168389859D01*
X108083605Y-168474013D01*
X107931115Y-168546789D01*
X107799367Y-168608909D01*
X107686857Y-168661097D01*
X107592081Y-168704076D01*
X107513536Y-168738568D01*
X107449717Y-168765297D01*
X107399122Y-168784986D01*
X107360246Y-168798358D01*
X107347500Y-168802139D01*
X107277950Y-168821818D01*
X107197193Y-168844986D01*
X107167500Y-168853590D01*
X107096437Y-168874172D01*
X107006456Y-168900118D01*
X106917500Y-168925676D01*
X106838920Y-168948833D01*
X106770287Y-168970173D01*
X106725022Y-168985506D01*
X106721558Y-168986838D01*
X106638215Y-169004120D01*
X106567516Y-168987365D01*
X106537500Y-168964999D01*
X106501645Y-168904295D01*
X106504218Y-168832858D01*
X106509797Y-168816224D01*
X106527654Y-168796933D01*
X106572047Y-168757046D01*
X106638007Y-168700616D01*
X106720563Y-168631692D01*
X106814747Y-168554325D01*
X106915588Y-168472566D01*
X107018117Y-168390466D01*
X107117365Y-168312075D01*
X107208362Y-168241445D01*
X107286139Y-168182626D01*
X107296458Y-168174999D01*
X107334357Y-168145812D01*
X107388482Y-168102633D01*
X107449342Y-168053225D01*
X107507445Y-168005350D01*
X107553299Y-167966771D01*
X107577413Y-167945249D01*
X107577500Y-167945160D01*
X107598204Y-167928090D01*
X107639794Y-167896196D01*
X107667500Y-167875488D01*
X107718217Y-167837668D01*
X107756715Y-167808538D01*
X107767500Y-167800146D01*
X107792543Y-167781991D01*
X107844797Y-167745516D01*
X107919629Y-167693870D01*
X108012405Y-167630200D01*
X108118494Y-167557657D01*
X108233262Y-167479388D01*
X108352077Y-167398543D01*
X108470305Y-167318271D01*
X108583315Y-167241720D01*
X108686473Y-167172040D01*
X108775147Y-167112379D01*
X108844704Y-167065886D01*
X108890511Y-167035709D01*
X108907930Y-167024999D01*
X108927816Y-167014941D01*
X108972789Y-166988156D01*
X109034402Y-166949725D01*
X109057500Y-166934999D01*
X109122890Y-166893772D01*
X109174565Y-166862479D01*
X109204049Y-166846206D01*
X109207500Y-166844999D01*
X109227591Y-166834936D01*
X109272732Y-166808139D01*
X109334445Y-166769694D01*
X109357500Y-166754999D01*
X109423060Y-166713747D01*
X109475098Y-166682447D01*
X109505056Y-166666192D01*
X109508665Y-166664999D01*
X109529892Y-166655046D01*
X109574329Y-166629152D01*
X109623460Y-166598549D01*
X109672750Y-166567804D01*
X109727837Y-166535094D01*
X109792475Y-166498420D01*
X109870416Y-166455782D01*
X109965413Y-166405182D01*
X110081218Y-166344619D01*
X110221583Y-166272096D01*
X110390262Y-166185612D01*
X110587500Y-166084956D01*
X110727873Y-166013109D01*
X110858776Y-165945501D01*
X110975388Y-165884668D01*
X111072884Y-165833149D01*
X111146443Y-165793483D01*
X111191243Y-165768205D01*
X111200587Y-165762306D01*
X111240427Y-165736547D01*
X111264524Y-165725040D01*
X111265123Y-165724999D01*
X111285104Y-165714786D01*
X111332583Y-165686643D01*
X111401436Y-165644308D01*
X111485541Y-165591523D01*
X111532035Y-165561973D01*
X111626619Y-165501875D01*
X111713912Y-165446888D01*
X111786172Y-165401852D01*
X111835660Y-165371611D01*
X111847500Y-165364652D01*
X111884225Y-165342787D01*
X111945301Y-165305505D01*
X112023499Y-165257307D01*
X112111593Y-165202695D01*
X112202353Y-165146173D01*
X112288554Y-165092241D01*
X112362965Y-165045401D01*
X112418362Y-165010156D01*
X112447514Y-164991007D01*
X112448518Y-164990290D01*
X112482607Y-164968321D01*
X112508518Y-164953199D01*
X112824952Y-164773733D01*
X112857500Y-164754998D01*
X112937057Y-164709269D01*
X113017235Y-164663387D01*
X113076449Y-164629685D01*
X113147516Y-164588919D01*
X113228230Y-164541896D01*
X113266449Y-164519357D01*
X113336856Y-164477941D01*
X113405754Y-164437968D01*
X113437500Y-164419832D01*
X113483599Y-164393637D01*
X113553970Y-164353497D01*
X113638184Y-164305367D01*
X113707500Y-164265691D01*
X113805736Y-164209835D01*
X113908624Y-164152016D01*
X114001224Y-164100600D01*
X114047500Y-164075291D01*
X114137358Y-164026233D01*
X114240278Y-163969479D01*
X114334508Y-163917024D01*
X114337500Y-163915347D01*
X114410847Y-163874306D01*
X114481680Y-163834893D01*
X114558331Y-163792508D01*
X114649130Y-163742550D01*
X114762409Y-163680418D01*
X114832500Y-163642026D01*
X114909129Y-163600055D01*
X114986105Y-163557876D01*
X115030508Y-163533534D01*
X115102898Y-163492252D01*
X115178697Y-163446750D01*
X115195111Y-163436506D01*
X115245097Y-163406369D01*
X115280179Y-163387824D01*
X115288499Y-163384999D01*
X115310296Y-163374561D01*
X115353493Y-163347784D01*
X115387500Y-163324999D01*
X115438672Y-163291271D01*
X115475827Y-163269505D01*
X115487064Y-163264999D01*
X115509047Y-163254996D01*
X115554355Y-163228865D01*
X115608849Y-163194999D01*
X115666175Y-163159131D01*
X115708922Y-163133886D01*
X115727110Y-163124999D01*
X115746822Y-163115338D01*
X115793286Y-163089197D01*
X115859054Y-163050842D01*
X115919277Y-163014999D01*
X115995033Y-162970038D01*
X116057394Y-162933956D01*
X116098886Y-162911019D01*
X116111967Y-162904999D01*
X116133130Y-162894705D01*
X116171710Y-162869740D01*
X116174412Y-162867858D01*
X116224379Y-162835431D01*
X116289095Y-162796548D01*
X116317500Y-162780324D01*
X116382435Y-162743658D01*
X116463602Y-162697408D01*
X116537500Y-162654999D01*
X116617267Y-162609259D01*
X116697886Y-162563414D01*
X116757500Y-162529856D01*
X116813096Y-162498096D01*
X116855017Y-162472811D01*
X116867500Y-162464453D01*
X116877647Y-162457168D01*
X116893153Y-162447280D01*
X116919146Y-162431823D01*
X116960754Y-162407834D01*
X117023105Y-162372349D01*
X117111328Y-162322404D01*
X117197500Y-162273704D01*
X117276430Y-162227772D01*
X117377759Y-162166843D01*
X117490347Y-162097716D01*
X117603054Y-162027191D01*
X117643768Y-162001330D01*
X117736622Y-161942339D01*
X117817098Y-161891732D01*
X117879434Y-161853091D01*
X117917870Y-161829997D01*
X117927451Y-161824999D01*
X117946051Y-161814821D01*
X117991988Y-161786889D01*
X118058969Y-161745102D01*
X118140700Y-161693361D01*
X118168790Y-161675435D01*
X118280970Y-161599151D01*
X118396092Y-161512772D01*
X118509534Y-161420606D01*
X118616672Y-161326965D01*
X118712884Y-161236159D01*
X118793548Y-161152497D01*
X118854040Y-161080290D01*
X118889739Y-161023848D01*
X118897500Y-160995992D01*
X118879762Y-160989046D01*
X118835561Y-160985243D01*
X118819134Y-160984999D01*
X118761912Y-160993783D01*
X118679635Y-161020955D01*
X118568910Y-161067741D01*
X118494134Y-161102527D01*
X118321249Y-161184822D01*
X118181706Y-161251034D01*
X118072807Y-161302424D01*
X117991850Y-161340254D01*
X117936136Y-161365784D01*
X117902963Y-161380277D01*
X117889633Y-161384995D01*
X117889513Y-161384999D01*
X117869131Y-161393096D01*
X117819846Y-161415201D01*
X117748829Y-161448037D01*
X117663249Y-161488322D01*
X117654106Y-161492663D01*
X117543249Y-161545173D01*
X117451632Y-161588049D01*
X117368601Y-161626096D01*
X117283507Y-161664117D01*
X117185697Y-161706914D01*
X117064522Y-161759291D01*
X117027500Y-161775232D01*
X116932321Y-161816283D01*
X116842493Y-161855182D01*
X116769018Y-161887156D01*
X116727500Y-161905385D01*
X116666024Y-161932113D01*
X116586369Y-161966052D01*
X116517500Y-161994961D01*
X116432438Y-162030865D01*
X116344866Y-162068615D01*
X116287500Y-162093909D01*
X116217211Y-162123735D01*
X116128174Y-162159217D01*
X116039393Y-162192787D01*
X116037500Y-162193479D01*
X115960904Y-162221690D01*
X115894910Y-162246470D01*
X115851897Y-162263162D01*
X115847500Y-162264969D01*
X115809972Y-162279609D01*
X115747174Y-162303053D01*
X115671515Y-162330677D01*
X115657500Y-162335732D01*
X115580848Y-162363588D01*
X115514824Y-162388046D01*
X115471835Y-162404503D01*
X115467500Y-162406260D01*
X115432495Y-162419755D01*
X115369768Y-162443061D01*
X115289255Y-162472508D01*
X115227500Y-162494860D01*
X115081994Y-162547564D01*
X114955528Y-162593911D01*
X114853761Y-162631807D01*
X114782348Y-162659159D01*
X114767500Y-162665073D01*
X114726953Y-162678719D01*
X114663225Y-162697370D01*
X114607500Y-162712413D01*
X114515791Y-162736505D01*
X114415691Y-162763201D01*
X114367500Y-162776220D01*
X114289657Y-162797010D01*
X114215987Y-162816060D01*
X114177500Y-162825600D01*
X114105829Y-162843644D01*
X114037500Y-162862038D01*
X113988018Y-162875645D01*
X113912130Y-162896146D01*
X113822110Y-162920235D01*
X113767500Y-162934750D01*
X113674895Y-162959432D01*
X113589206Y-162982510D01*
X113522704Y-163000666D01*
X113497500Y-163007711D01*
X113425850Y-163027335D01*
X113357500Y-163045011D01*
X113292073Y-163061217D01*
X113216345Y-163079958D01*
X113197500Y-163084619D01*
X113109997Y-163107255D01*
X113015432Y-163133312D01*
X112924490Y-163159672D01*
X112847853Y-163183214D01*
X112796207Y-163200819D01*
X112787500Y-163204338D01*
X112749917Y-163219232D01*
X112687024Y-163242696D01*
X112611269Y-163270101D01*
X112597500Y-163274999D01*
X112520785Y-163302488D01*
X112454726Y-163326653D01*
X112411764Y-163342934D01*
X112407500Y-163344652D01*
X112366866Y-163360494D01*
X112304722Y-163383817D01*
X112257500Y-163401180D01*
X112097865Y-163459472D01*
X111960279Y-163509969D01*
X111848349Y-163551335D01*
X111765682Y-163582235D01*
X111715886Y-163601333D01*
X111707500Y-163604727D01*
X111672559Y-163618416D01*
X111609953Y-163642120D01*
X111529582Y-163672115D01*
X111467500Y-163695062D01*
X111406831Y-163717383D01*
X111355411Y-163736501D01*
X111308818Y-163754390D01*
X111262631Y-163773021D01*
X111212428Y-163794368D01*
X111153788Y-163820402D01*
X111082290Y-163853097D01*
X110993513Y-163894425D01*
X110883035Y-163946357D01*
X110746435Y-164010868D01*
X110579292Y-164089928D01*
X110527500Y-164114429D01*
X110177169Y-164279029D01*
X109827874Y-164441237D01*
X109776568Y-164465665D01*
X109694043Y-164505859D01*
X109584803Y-164559586D01*
X109453353Y-164624615D01*
X109304196Y-164698715D01*
X109141836Y-164779653D01*
X108970776Y-164865199D01*
X108847874Y-164926826D01*
X108630479Y-165036204D01*
X108443902Y-165130696D01*
X108283035Y-165213009D01*
X108142773Y-165285847D01*
X108018009Y-165351917D01*
X107903635Y-165413923D01*
X107794546Y-165474571D01*
X107685633Y-165536566D01*
X107571791Y-165602613D01*
X107567500Y-165605122D01*
X107498344Y-165645158D01*
X107405421Y-165698389D01*
X107296885Y-165760201D01*
X107180891Y-165825980D01*
X107065590Y-165891113D01*
X106959137Y-165950987D01*
X106869687Y-166000987D01*
X106805391Y-166036502D01*
X106797500Y-166040794D01*
X106724812Y-166081290D01*
X106659078Y-166119819D01*
X106614497Y-166148058D01*
X106614412Y-166148117D01*
X106574219Y-166173646D01*
X106549579Y-166184966D01*
X106549015Y-166184999D01*
X106525979Y-166194712D01*
X106482513Y-166219157D01*
X106462102Y-166231635D01*
X106401834Y-166267895D01*
X106326567Y-166311306D01*
X106277500Y-166338726D01*
X106152927Y-166407678D01*
X106023404Y-166480195D01*
X105908885Y-166545103D01*
X105907500Y-166545895D01*
X105869978Y-166567290D01*
X105805061Y-166604242D01*
X105720133Y-166652550D01*
X105622577Y-166708014D01*
X105557500Y-166744999D01*
X105428200Y-166818485D01*
X105328577Y-166875171D01*
X105253527Y-166918017D01*
X105197949Y-166949981D01*
X105156738Y-166974021D01*
X105124792Y-166993098D01*
X105097009Y-167010168D01*
X105068285Y-167028192D01*
X105059201Y-167033924D01*
X105005892Y-167064290D01*
X104963730Y-167082583D01*
X104951897Y-167084999D01*
X104913362Y-167096852D01*
X104906500Y-167101880D01*
X104878872Y-167117482D01*
X104825837Y-167141303D01*
X104767500Y-167164810D01*
X104690842Y-167194591D01*
X104617939Y-167223508D01*
X104577500Y-167239968D01*
X104519571Y-167263868D01*
X104471313Y-167283476D01*
X104467500Y-167284998D01*
X104421898Y-167303461D01*
X104363827Y-167327337D01*
X104357500Y-167329959D01*
X104292377Y-167356394D01*
X104235669Y-167377322D01*
X104178899Y-167394978D01*
X104113594Y-167411594D01*
X104031278Y-167429404D01*
X103923476Y-167450642D01*
X103837500Y-167467007D01*
X103759843Y-167482621D01*
X103685543Y-167499029D01*
X103655179Y-167506407D01*
X103601615Y-167514637D01*
X103520463Y-167520435D01*
X103420566Y-167523859D01*
X103310768Y-167524969D01*
X103199914Y-167523824D01*
X103096847Y-167520481D01*
X103010412Y-167515000D01*
X102949452Y-167507440D01*
X102927961Y-167501570D01*
X102880558Y-167461100D01*
X102859489Y-167403611D01*
X102864754Y-167342195D01*
X102896353Y-167289941D01*
X102927961Y-167268427D01*
X102971729Y-167258329D01*
X103049932Y-167250811D01*
X103157063Y-167246256D01*
X103265456Y-167244999D01*
X103373441Y-167243762D01*
X103471486Y-167240369D01*
X103550466Y-167235298D01*
X103601260Y-167229025D01*
X103609515Y-167227018D01*
X103654016Y-167215870D01*
X103726154Y-167200627D01*
X103814101Y-167183713D01*
X103867500Y-167174126D01*
X104020062Y-167143584D01*
X104157507Y-167106359D01*
X104297276Y-167057155D01*
X104422500Y-167005602D01*
X104461689Y-166989483D01*
X104526154Y-166963753D01*
X104603855Y-166933204D01*
X104627500Y-166923990D01*
X104707081Y-166892754D01*
X104774280Y-166865250D01*
X104835902Y-166838081D01*
X104898754Y-166807853D01*
X104969642Y-166771169D01*
X105055371Y-166724633D01*
X105162748Y-166664848D01*
X105287500Y-166594666D01*
X105404281Y-166528912D01*
X105516737Y-166465736D01*
X105617428Y-166409308D01*
X105698915Y-166363795D01*
X105753757Y-166333366D01*
X105757500Y-166331308D01*
X105832715Y-166289725D01*
X105907952Y-166247705D01*
X105947500Y-166225374D01*
X106004168Y-166193732D01*
X106081124Y-166151534D01*
X106163340Y-166107010D01*
X106177500Y-166099405D01*
X106248483Y-166060947D01*
X106306609Y-166028743D01*
X106342255Y-166008149D01*
X106347500Y-166004776D01*
X106373200Y-165989469D01*
X106425010Y-165960530D01*
X106493707Y-165923075D01*
X106527500Y-165904898D01*
X106653835Y-165837040D01*
X106748725Y-165785604D01*
X106816129Y-165748398D01*
X106860004Y-165723229D01*
X106884312Y-165707906D01*
X106887500Y-165705583D01*
X106915662Y-165687586D01*
X106965264Y-165658612D01*
X106997500Y-165640503D01*
X107079939Y-165594639D01*
X107161141Y-165548964D01*
X107250835Y-165497955D01*
X107358747Y-165436089D01*
X107447500Y-165384999D01*
X107536614Y-165333719D01*
X107621501Y-165285001D01*
X107691177Y-165245143D01*
X107727500Y-165224480D01*
X107793252Y-165187263D01*
X107870344Y-165143608D01*
X107907500Y-165122561D01*
X107952731Y-165098177D01*
X108028989Y-165058490D01*
X108131442Y-165005921D01*
X108255258Y-164942892D01*
X108395605Y-164871825D01*
X108547652Y-164795143D01*
X108706567Y-164715267D01*
X108867519Y-164634620D01*
X109025675Y-164555623D01*
X109176205Y-164480698D01*
X109314277Y-164412268D01*
X109435058Y-164352755D01*
X109533718Y-164304580D01*
X109605425Y-164270165D01*
X109637500Y-164255335D01*
X109709017Y-164223027D01*
X109803577Y-164179647D01*
X109908070Y-164131238D01*
X109995506Y-164090365D01*
X110092853Y-164044800D01*
X110186380Y-164001309D01*
X110265069Y-163965000D01*
X110315506Y-163942052D01*
X110354564Y-163924476D01*
X110396304Y-163905479D01*
X110446501Y-163882385D01*
X110510930Y-163852518D01*
X110595367Y-163813204D01*
X110705585Y-163761767D01*
X110817500Y-163709485D01*
X110955526Y-163645252D01*
X111061354Y-163596668D01*
X111138832Y-163562046D01*
X111191811Y-163539697D01*
X111224139Y-163527934D01*
X111238364Y-163524999D01*
X111271176Y-163516207D01*
X111292771Y-163506144D01*
X111325416Y-163491629D01*
X111386079Y-163467357D01*
X111465136Y-163437108D01*
X111527500Y-163413949D01*
X111639228Y-163372988D01*
X111764165Y-163327199D01*
X111880874Y-163284438D01*
X111917500Y-163271023D01*
X112002467Y-163239747D01*
X112076681Y-163212147D01*
X112129851Y-163192063D01*
X112147500Y-163185167D01*
X112188130Y-163169425D01*
X112250269Y-163146168D01*
X112297500Y-163128817D01*
X112366219Y-163103597D01*
X112457114Y-163069994D01*
X112554902Y-163033665D01*
X112597500Y-163017779D01*
X112707882Y-162978803D01*
X112832739Y-162938144D01*
X112949440Y-162903096D01*
X112977500Y-162895301D01*
X113090305Y-162864766D01*
X113217699Y-162830363D01*
X113335671Y-162798575D01*
X113357500Y-162792704D01*
X113446648Y-162768683D01*
X113527583Y-162746775D01*
X113588201Y-162730262D01*
X113607500Y-162724944D01*
X113652326Y-162712729D01*
X113724220Y-162693410D01*
X113811577Y-162670099D01*
X113867500Y-162655247D01*
X113958592Y-162631008D01*
X114041300Y-162608835D01*
X114104019Y-162591846D01*
X114127500Y-162585362D01*
X114172464Y-162572981D01*
X114244366Y-162553467D01*
X114331497Y-162529992D01*
X114385136Y-162515612D01*
X114546847Y-162470934D01*
X114677405Y-162431853D01*
X114773592Y-162399356D01*
X114807500Y-162386010D01*
X114856113Y-162367025D01*
X114907500Y-162348691D01*
X114979288Y-162323932D01*
X115063650Y-162294221D01*
X115149847Y-162263414D01*
X115227141Y-162235367D01*
X115284794Y-162213936D01*
X115307500Y-162205028D01*
X115345027Y-162190388D01*
X115407825Y-162166944D01*
X115483484Y-162139320D01*
X115497500Y-162134265D01*
X115574134Y-162106527D01*
X115640149Y-162082368D01*
X115683146Y-162066330D01*
X115687500Y-162064650D01*
X115733851Y-162047449D01*
X115792672Y-162026660D01*
X115797500Y-162024999D01*
X115856216Y-162004231D01*
X115904647Y-161986128D01*
X115907500Y-161984999D01*
X115953699Y-161967307D01*
X116012369Y-161945708D01*
X116017500Y-161943859D01*
X116091940Y-161915221D01*
X116188958Y-161874494D01*
X116314086Y-161819326D01*
X116373092Y-161792759D01*
X116431438Y-161767005D01*
X116473419Y-161749665D01*
X116487546Y-161744999D01*
X116509035Y-161737396D01*
X116555917Y-161717644D01*
X116606953Y-161694999D01*
X116692634Y-161656245D01*
X116785879Y-161614070D01*
X116828046Y-161594999D01*
X116888006Y-161568558D01*
X116931977Y-161550435D01*
X116948454Y-161544999D01*
X116969675Y-161536991D01*
X117018461Y-161515504D01*
X117086303Y-161484340D01*
X117127500Y-161464999D01*
X117201810Y-161430245D01*
X117261365Y-161403116D01*
X117297761Y-161387402D01*
X117304821Y-161384999D01*
X117325145Y-161377009D01*
X117373741Y-161355407D01*
X117442749Y-161323738D01*
X117504266Y-161294998D01*
X117583714Y-161258014D01*
X117648910Y-161228400D01*
X117691933Y-161209711D01*
X117704931Y-161204999D01*
X117713159Y-161202406D01*
X117733867Y-161193647D01*
X117770202Y-161177248D01*
X117825315Y-161151739D01*
X117902356Y-161115648D01*
X118004473Y-161067501D01*
X118134817Y-161005827D01*
X118296536Y-160929154D01*
X118390642Y-160884497D01*
X118537464Y-160818934D01*
X118696002Y-160756725D01*
X118875941Y-160694272D01*
X119054796Y-160637744D01*
X119155159Y-160611940D01*
X119228385Y-160607227D01*
X119282626Y-160625858D01*
G37*
%TO.C,D15*%
D13*
X103505000Y-175982500D02*
X105745000Y-175982500D01*
X103505000Y-176102500D02*
X105745000Y-176102500D01*
X103505000Y-176222500D02*
X105745000Y-176222500D01*
X104625000Y-171932500D02*
X104625000Y-172582500D01*
X104625000Y-177472500D02*
X104625000Y-176822500D01*
X103505000Y-172582500D02*
X105745000Y-172582500D01*
X105745000Y-176822500D01*
X103505000Y-176822500D01*
X103505000Y-172582500D01*
%TO.C,D5*%
X65505000Y-128602500D02*
X67745000Y-128602500D01*
X65505000Y-128722500D02*
X67745000Y-128722500D01*
X65505000Y-128842500D02*
X67745000Y-128842500D01*
X66625000Y-124552500D02*
X66625000Y-125202500D01*
X66625000Y-130092500D02*
X66625000Y-129442500D01*
X65505000Y-125202500D02*
X67745000Y-125202500D01*
X67745000Y-129442500D01*
X65505000Y-129442500D01*
X65505000Y-125202500D01*
%TO.C,D8*%
X132505000Y-128482500D02*
X134745000Y-128482500D01*
X132505000Y-128602500D02*
X134745000Y-128602500D01*
X132505000Y-128722500D02*
X134745000Y-128722500D01*
X133625000Y-124432500D02*
X133625000Y-125082500D01*
X133625000Y-129972500D02*
X133625000Y-129322500D01*
X132505000Y-125082500D02*
X134745000Y-125082500D01*
X134745000Y-129322500D01*
X132505000Y-129322500D01*
X132505000Y-125082500D01*
%TO.C,D12*%
X132005000Y-147792500D02*
X134245000Y-147792500D01*
X132005000Y-147912500D02*
X134245000Y-147912500D01*
X132005000Y-148032500D02*
X134245000Y-148032500D01*
X133125000Y-143742500D02*
X133125000Y-144392500D01*
X133125000Y-149282500D02*
X133125000Y-148632500D01*
X132005000Y-144392500D02*
X134245000Y-144392500D01*
X134245000Y-148632500D01*
X132005000Y-148632500D01*
X132005000Y-144392500D01*
%TO.C,D3*%
X71855000Y-118512500D02*
X72505000Y-118512500D01*
X73105000Y-117392500D02*
X73105000Y-119632500D01*
X73225000Y-117392500D02*
X73225000Y-119632500D01*
X73345000Y-117392500D02*
X73345000Y-119632500D01*
X77395000Y-118512500D02*
X76745000Y-118512500D01*
X72505000Y-117392500D02*
X76745000Y-117392500D01*
X76745000Y-119632500D01*
X72505000Y-119632500D01*
X72505000Y-117392500D01*
%TO.C,D11*%
X103655000Y-147482500D02*
X105895000Y-147482500D01*
X103655000Y-147602500D02*
X105895000Y-147602500D01*
X103655000Y-147722500D02*
X105895000Y-147722500D01*
X104775000Y-143432500D02*
X104775000Y-144082500D01*
X104775000Y-148972500D02*
X104775000Y-148322500D01*
X103655000Y-144082500D02*
X105895000Y-144082500D01*
X105895000Y-148322500D01*
X103655000Y-148322500D01*
X103655000Y-144082500D01*
%TO.C,D6*%
X84505000Y-128792500D02*
X86745000Y-128792500D01*
X84505000Y-128912500D02*
X86745000Y-128912500D01*
X84505000Y-129032500D02*
X86745000Y-129032500D01*
X85625000Y-124742500D02*
X85625000Y-125392500D01*
X85625000Y-130282500D02*
X85625000Y-129632500D01*
X84505000Y-125392500D02*
X86745000Y-125392500D01*
X86745000Y-129632500D01*
X84505000Y-129632500D01*
X84505000Y-125392500D01*
%TO.C,D2*%
X65532764Y-110817500D02*
X67772764Y-110817500D01*
X65532764Y-110937500D02*
X67772764Y-110937500D01*
X65532764Y-111057500D02*
X67772764Y-111057500D01*
X66652764Y-106767500D02*
X66652764Y-107417500D01*
X66652764Y-112307500D02*
X66652764Y-111657500D01*
X65532764Y-107417500D02*
X67772764Y-107417500D01*
X67772764Y-111657500D01*
X65532764Y-111657500D01*
X65532764Y-107417500D01*
%TD*%
M02*
