M48
; DRILL file KiCad 10.0.4 date 2026-09-24T09:28:09
; FORMAT={-:-/ absolute / metric / decimal}
; #@! TF.CreationDate,2026-09-24T09:28:09+10:00
; #@! TF.GenerationSoftware,Kicad,Pcbnew,10.0.4
; #@! TF.FileFunction,Plated,1,2,PTH
FMAT,2
METRIC
; #@! TA.AperFunction,Plated,PTH,ViaDrill
T1C0.300
; #@! TA.AperFunction,Plated,PTH,ComponentDrill
T2C0.800
; #@! TA.AperFunction,Plated,PTH,ComponentDrill
T3C1.000
; #@! TA.AperFunction,Plated,PTH,ComponentDrill
T4C1.500
; #@! TA.AperFunction,Plated,PTH,ComponentDrill
T5C1.524
%
G90
G05
T1
X53.318Y-106.997
X82.125Y-113.012
X84.125Y-117.012
X91.625Y-114.512
X91.625Y-118.012
X98.625Y-111.512
X108.625Y-116.512
X109.125Y-133.012
X109.125Y-143.512
X109.606Y-119.993
X110.125Y-133.012
X110.525Y-119.012
X111.125Y-118.012
X111.125Y-127.512
X113.625Y-119.012
T2
X66.625Y-123.512
X66.625Y-131.132
X66.625Y-142.392
X66.625Y-150.012
X66.625Y-170.892
X66.625Y-178.512
X66.653Y-105.727
X66.653Y-113.347
X70.815Y-118.512
X78.435Y-118.512
X85.625Y-123.703
X85.625Y-131.322
X85.625Y-142.512
X85.625Y-150.132
X85.625Y-171.202
X85.625Y-178.822
X90.005Y-119.512
X97.625Y-119.512
X104.625Y-123.703
X104.625Y-131.322
X104.625Y-170.892
X104.625Y-178.512
X104.775Y-142.392
X104.775Y-150.012
X114.125Y-108.703
X114.125Y-116.322
X133.125Y-142.702
X133.125Y-150.322
X133.35Y-171.202
X133.35Y-178.822
X133.625Y-123.392
X133.625Y-131.012
T3
X87.625Y-98.605
X87.625Y-101.145
X87.625Y-103.685
X87.625Y-106.225
X87.625Y-108.765
X87.625Y-111.305
X87.625Y-113.845
X102.875Y-98.605
X102.875Y-101.145
X102.875Y-103.685
X102.875Y-106.225
X102.875Y-108.765
X102.875Y-111.305
X102.875Y-113.845
X121.325Y-102.287
X121.325Y-116.787
X123.825Y-102.287
X126.325Y-102.287
X126.325Y-116.787
T5
X53.318Y-126.047
X53.34Y-106.997
X53.34Y-145.097
X53.34Y-173.672
X59.668Y-123.507
X59.69Y-104.457
X59.69Y-142.558
X59.69Y-171.132
X72.39Y-106.997
X72.39Y-126.047
X72.39Y-145.097
X72.39Y-173.672
X78.74Y-104.457
X78.74Y-123.507
X78.74Y-142.558
X78.74Y-171.132
X91.44Y-106.997
X91.44Y-126.047
X91.44Y-145.097
X91.44Y-173.672
X97.79Y-104.457
X97.79Y-123.507
X97.79Y-142.558
X97.79Y-171.132
X120.015Y-126.047
X120.015Y-145.097
X120.015Y-173.672
X126.365Y-123.507
X126.365Y-142.558
X126.365Y-171.132
T4
G00X118.225Y-109.137
M15
G01X118.225Y-110.438
M16
G05
G00X129.425Y-109.137
M15
G01X129.425Y-110.438
M16
G05
M30
