%TF.GenerationSoftware,KiCad,Pcbnew,10.0.4*%
%TF.CreationDate,2026-09-24T09:27:19+10:00*%
%TF.ProjectId,hackpad,6861636b-7061-4642-9e6b-696361645f70,rev?*%
%TF.SameCoordinates,Original*%
%TF.FileFunction,Legend,Bot*%
%TF.FilePolarity,Positive*%
%FSLAX46Y46*%
G04 Gerber Fmt 4.6, Leading zero omitted, Abs format (unit mm)*
G04 Created by KiCad (PCBNEW 10.0.4) date 2026-09-24 09:27:19*
%MOMM*%
%LPD*%
G01*
G04 APERTURE LIST*
%ADD10C,0.101600*%
%ADD11C,0.150000*%
%ADD12C,0.127000*%
%ADD13C,0.120000*%
%ADD14C,0.254000*%
%ADD15C,0.025400*%
G04 APERTURE END LIST*
D10*
X95927333Y-108281500D02*
X95927333Y-109001167D01*
X95927333Y-109001167D02*
X95885000Y-109085833D01*
X95885000Y-109085833D02*
X95842666Y-109128167D01*
X95842666Y-109128167D02*
X95758000Y-109170500D01*
X95758000Y-109170500D02*
X95588666Y-109170500D01*
X95588666Y-109170500D02*
X95504000Y-109128167D01*
X95504000Y-109128167D02*
X95461666Y-109085833D01*
X95461666Y-109085833D02*
X95419333Y-109001167D01*
X95419333Y-109001167D02*
X95419333Y-108281500D01*
X94530333Y-109170500D02*
X95038333Y-109170500D01*
X94784333Y-109170500D02*
X94784333Y-108281500D01*
X94784333Y-108281500D02*
X94869000Y-108408500D01*
X94869000Y-108408500D02*
X94953667Y-108493167D01*
X94953667Y-108493167D02*
X95038333Y-108535500D01*
D11*
X100011904Y-105131715D02*
X99869047Y-105179334D01*
X99869047Y-105179334D02*
X99630952Y-105179334D01*
X99630952Y-105179334D02*
X99535714Y-105131715D01*
X99535714Y-105131715D02*
X99488095Y-105084095D01*
X99488095Y-105084095D02*
X99440476Y-104988857D01*
X99440476Y-104988857D02*
X99440476Y-104893619D01*
X99440476Y-104893619D02*
X99488095Y-104798381D01*
X99488095Y-104798381D02*
X99535714Y-104750762D01*
X99535714Y-104750762D02*
X99630952Y-104703143D01*
X99630952Y-104703143D02*
X99821428Y-104655524D01*
X99821428Y-104655524D02*
X99916666Y-104607905D01*
X99916666Y-104607905D02*
X99964285Y-104560286D01*
X99964285Y-104560286D02*
X100011904Y-104465048D01*
X100011904Y-104465048D02*
X100011904Y-104369810D01*
X100011904Y-104369810D02*
X99964285Y-104274572D01*
X99964285Y-104274572D02*
X99916666Y-104226953D01*
X99916666Y-104226953D02*
X99821428Y-104179334D01*
X99821428Y-104179334D02*
X99583333Y-104179334D01*
X99583333Y-104179334D02*
X99440476Y-104226953D01*
X98630952Y-105131715D02*
X98726190Y-105179334D01*
X98726190Y-105179334D02*
X98916666Y-105179334D01*
X98916666Y-105179334D02*
X99011904Y-105131715D01*
X99011904Y-105131715D02*
X99059523Y-105036476D01*
X99059523Y-105036476D02*
X99059523Y-104655524D01*
X99059523Y-104655524D02*
X99011904Y-104560286D01*
X99011904Y-104560286D02*
X98916666Y-104512667D01*
X98916666Y-104512667D02*
X98726190Y-104512667D01*
X98726190Y-104512667D02*
X98630952Y-104560286D01*
X98630952Y-104560286D02*
X98583333Y-104655524D01*
X98583333Y-104655524D02*
X98583333Y-104750762D01*
X98583333Y-104750762D02*
X99059523Y-104846000D01*
X97773809Y-105131715D02*
X97869047Y-105179334D01*
X97869047Y-105179334D02*
X98059523Y-105179334D01*
X98059523Y-105179334D02*
X98154761Y-105131715D01*
X98154761Y-105131715D02*
X98202380Y-105036476D01*
X98202380Y-105036476D02*
X98202380Y-104655524D01*
X98202380Y-104655524D02*
X98154761Y-104560286D01*
X98154761Y-104560286D02*
X98059523Y-104512667D01*
X98059523Y-104512667D02*
X97869047Y-104512667D01*
X97869047Y-104512667D02*
X97773809Y-104560286D01*
X97773809Y-104560286D02*
X97726190Y-104655524D01*
X97726190Y-104655524D02*
X97726190Y-104750762D01*
X97726190Y-104750762D02*
X98202380Y-104846000D01*
X96916666Y-105131715D02*
X97011904Y-105179334D01*
X97011904Y-105179334D02*
X97202380Y-105179334D01*
X97202380Y-105179334D02*
X97297618Y-105131715D01*
X97297618Y-105131715D02*
X97345237Y-105036476D01*
X97345237Y-105036476D02*
X97345237Y-104655524D01*
X97345237Y-104655524D02*
X97297618Y-104560286D01*
X97297618Y-104560286D02*
X97202380Y-104512667D01*
X97202380Y-104512667D02*
X97011904Y-104512667D01*
X97011904Y-104512667D02*
X96916666Y-104560286D01*
X96916666Y-104560286D02*
X96869047Y-104655524D01*
X96869047Y-104655524D02*
X96869047Y-104750762D01*
X96869047Y-104750762D02*
X97345237Y-104846000D01*
X96011904Y-105179334D02*
X96011904Y-104179334D01*
X96011904Y-105131715D02*
X96107142Y-105179334D01*
X96107142Y-105179334D02*
X96297618Y-105179334D01*
X96297618Y-105179334D02*
X96392856Y-105131715D01*
X96392856Y-105131715D02*
X96440475Y-105084095D01*
X96440475Y-105084095D02*
X96488094Y-104988857D01*
X96488094Y-104988857D02*
X96488094Y-104703143D01*
X96488094Y-104703143D02*
X96440475Y-104607905D01*
X96440475Y-104607905D02*
X96392856Y-104560286D01*
X96392856Y-104560286D02*
X96297618Y-104512667D01*
X96297618Y-104512667D02*
X96107142Y-104512667D01*
X96107142Y-104512667D02*
X96011904Y-104560286D01*
X94821427Y-105131715D02*
X94678570Y-105179334D01*
X94678570Y-105179334D02*
X94440475Y-105179334D01*
X94440475Y-105179334D02*
X94345237Y-105131715D01*
X94345237Y-105131715D02*
X94297618Y-105084095D01*
X94297618Y-105084095D02*
X94249999Y-104988857D01*
X94249999Y-104988857D02*
X94249999Y-104893619D01*
X94249999Y-104893619D02*
X94297618Y-104798381D01*
X94297618Y-104798381D02*
X94345237Y-104750762D01*
X94345237Y-104750762D02*
X94440475Y-104703143D01*
X94440475Y-104703143D02*
X94630951Y-104655524D01*
X94630951Y-104655524D02*
X94726189Y-104607905D01*
X94726189Y-104607905D02*
X94773808Y-104560286D01*
X94773808Y-104560286D02*
X94821427Y-104465048D01*
X94821427Y-104465048D02*
X94821427Y-104369810D01*
X94821427Y-104369810D02*
X94773808Y-104274572D01*
X94773808Y-104274572D02*
X94726189Y-104226953D01*
X94726189Y-104226953D02*
X94630951Y-104179334D01*
X94630951Y-104179334D02*
X94392856Y-104179334D01*
X94392856Y-104179334D02*
X94249999Y-104226953D01*
X93964284Y-104512667D02*
X93583332Y-104512667D01*
X93821427Y-104179334D02*
X93821427Y-105036476D01*
X93821427Y-105036476D02*
X93773808Y-105131715D01*
X93773808Y-105131715D02*
X93678570Y-105179334D01*
X93678570Y-105179334D02*
X93583332Y-105179334D01*
X92821427Y-104512667D02*
X92821427Y-105179334D01*
X93249998Y-104512667D02*
X93249998Y-105036476D01*
X93249998Y-105036476D02*
X93202379Y-105131715D01*
X93202379Y-105131715D02*
X93107141Y-105179334D01*
X93107141Y-105179334D02*
X92964284Y-105179334D01*
X92964284Y-105179334D02*
X92869046Y-105131715D01*
X92869046Y-105131715D02*
X92821427Y-105084095D01*
X91916665Y-105179334D02*
X91916665Y-104179334D01*
X91916665Y-105131715D02*
X92011903Y-105179334D01*
X92011903Y-105179334D02*
X92202379Y-105179334D01*
X92202379Y-105179334D02*
X92297617Y-105131715D01*
X92297617Y-105131715D02*
X92345236Y-105084095D01*
X92345236Y-105084095D02*
X92392855Y-104988857D01*
X92392855Y-104988857D02*
X92392855Y-104703143D01*
X92392855Y-104703143D02*
X92345236Y-104607905D01*
X92345236Y-104607905D02*
X92297617Y-104560286D01*
X92297617Y-104560286D02*
X92202379Y-104512667D01*
X92202379Y-104512667D02*
X92011903Y-104512667D01*
X92011903Y-104512667D02*
X91916665Y-104560286D01*
X91440474Y-105179334D02*
X91440474Y-104512667D01*
X91440474Y-104179334D02*
X91488093Y-104226953D01*
X91488093Y-104226953D02*
X91440474Y-104274572D01*
X91440474Y-104274572D02*
X91392855Y-104226953D01*
X91392855Y-104226953D02*
X91440474Y-104179334D01*
X91440474Y-104179334D02*
X91440474Y-104274572D01*
X90821427Y-105179334D02*
X90916665Y-105131715D01*
X90916665Y-105131715D02*
X90964284Y-105084095D01*
X90964284Y-105084095D02*
X91011903Y-104988857D01*
X91011903Y-104988857D02*
X91011903Y-104703143D01*
X91011903Y-104703143D02*
X90964284Y-104607905D01*
X90964284Y-104607905D02*
X90916665Y-104560286D01*
X90916665Y-104560286D02*
X90821427Y-104512667D01*
X90821427Y-104512667D02*
X90678570Y-104512667D01*
X90678570Y-104512667D02*
X90583332Y-104560286D01*
X90583332Y-104560286D02*
X90535713Y-104607905D01*
X90535713Y-104607905D02*
X90488094Y-104703143D01*
X90488094Y-104703143D02*
X90488094Y-104988857D01*
X90488094Y-104988857D02*
X90535713Y-105084095D01*
X90535713Y-105084095D02*
X90583332Y-105131715D01*
X90583332Y-105131715D02*
X90678570Y-105179334D01*
X90678570Y-105179334D02*
X90821427Y-105179334D01*
X96773808Y-106179334D02*
X96107142Y-107179334D01*
X96107142Y-106179334D02*
X96773808Y-107179334D01*
X95726189Y-107179334D02*
X95726189Y-106179334D01*
X95297618Y-106893619D02*
X94821428Y-106893619D01*
X95392856Y-107179334D02*
X95059523Y-106179334D01*
X95059523Y-106179334D02*
X94726190Y-107179334D01*
X94202380Y-106179334D02*
X94011904Y-106179334D01*
X94011904Y-106179334D02*
X93916666Y-106226953D01*
X93916666Y-106226953D02*
X93821428Y-106322191D01*
X93821428Y-106322191D02*
X93773809Y-106512667D01*
X93773809Y-106512667D02*
X93773809Y-106846000D01*
X93773809Y-106846000D02*
X93821428Y-107036476D01*
X93821428Y-107036476D02*
X93916666Y-107131715D01*
X93916666Y-107131715D02*
X94011904Y-107179334D01*
X94011904Y-107179334D02*
X94202380Y-107179334D01*
X94202380Y-107179334D02*
X94297618Y-107131715D01*
X94297618Y-107131715D02*
X94392856Y-107036476D01*
X94392856Y-107036476D02*
X94440475Y-106846000D01*
X94440475Y-106846000D02*
X94440475Y-106512667D01*
X94440475Y-106512667D02*
X94392856Y-106322191D01*
X94392856Y-106322191D02*
X94297618Y-106226953D01*
X94297618Y-106226953D02*
X94202380Y-106179334D01*
%TO.C,U1*%
D12*
X86350000Y-114724515D02*
X86350000Y-97724515D01*
X88350000Y-95725425D02*
X102150000Y-95725425D01*
X90750000Y-94300485D02*
X90750000Y-101653785D01*
X90750000Y-101653785D02*
X99750000Y-101653785D01*
X99750000Y-94300485D02*
X90750000Y-94300485D01*
X99750000Y-101653785D02*
X99750000Y-94300485D01*
X102150000Y-116724515D02*
X88350000Y-116724515D01*
X104150000Y-97724515D02*
X104150000Y-114724515D01*
D13*
X86350000Y-97724515D02*
G75*
G02*
X88350000Y-95724515I2044610J-44610D01*
G01*
X88350000Y-116724515D02*
G75*
G02*
X86350000Y-114724515I0J2000000D01*
G01*
X102150000Y-95724515D02*
G75*
G02*
X104150000Y-97724515I-44612J-2044612D01*
G01*
X104150000Y-114724515D02*
G75*
G02*
X102150000Y-116724515I-2044857J44857D01*
G01*
D14*
X106377000Y-97424515D02*
G75*
G02*
X106123000Y-97424515I-127000J0D01*
G01*
X106123000Y-97424515D02*
G75*
G02*
X106377000Y-97424515I127000J0D01*
G01*
D15*
X104137715Y-97662810D02*
X104134667Y-97614042D01*
X104130603Y-97565021D01*
X104137715Y-97662810D01*
X86360508Y-114746089D02*
X86362287Y-114795365D01*
X86365335Y-114844133D01*
X86369399Y-114893154D01*
X86374732Y-114941922D01*
X86381336Y-114990690D01*
X86388956Y-115039205D01*
X86397847Y-115087465D01*
X86407752Y-115135470D01*
X86360508Y-114746089D01*
%TD*%
M02*
