M48
; DRILL file KiCad 10.0.4 date 2026-09-24T09:28:09
; FORMAT={-:-/ absolute / metric / decimal}
; #@! TF.CreationDate,2026-09-24T09:28:09+10:00
; #@! TF.GenerationSoftware,Kicad,Pcbnew,10.0.4
; #@! TF.FileFunction,NonPlated,1,2,NPTH
FMAT,2
METRIC
; #@! TA.AperFunction,NonPlated,NPTH,ComponentDrill
T1C1.750
; #@! TA.AperFunction,NonPlated,NPTH,ComponentDrill
T2C3.988
%
G90
G05
T1
X52.048Y-128.588
X52.07Y-109.537
X52.07Y-147.637
X52.07Y-176.213
X62.208Y-128.588
X62.23Y-109.537
X62.23Y-147.637
X62.23Y-176.213
X71.12Y-109.537
X71.12Y-128.588
X71.12Y-147.637
X71.12Y-176.213
X81.28Y-109.537
X81.28Y-128.588
X81.28Y-147.637
X81.28Y-176.213
X90.17Y-109.537
X90.17Y-128.588
X90.17Y-147.637
X90.17Y-176.213
X100.33Y-109.537
X100.33Y-128.588
X100.33Y-147.637
X100.33Y-176.213
X118.745Y-128.588
X118.745Y-147.637
X118.745Y-176.213
X128.905Y-128.588
X128.905Y-147.637
X128.905Y-176.213
T2
X57.128Y-128.588
X57.15Y-109.537
X57.15Y-147.637
X57.15Y-176.213
X76.2Y-109.537
X76.2Y-128.588
X76.2Y-147.637
X76.2Y-176.213
X95.25Y-109.537
X95.25Y-128.588
X95.25Y-147.637
X95.25Y-176.213
X123.825Y-128.588
X123.825Y-147.637
X123.825Y-176.213
M30
