%TF.GenerationSoftware,KiCad,Pcbnew,10.0.4*%
%TF.CreationDate,2026-09-24T09:27:19+10:00*%
%TF.ProjectId,hackpad,6861636b-7061-4642-9e6b-696361645f70,rev?*%
%TF.SameCoordinates,Original*%
%TF.FileFunction,Copper,L2,Bot*%
%TF.FilePolarity,Positive*%
%FSLAX46Y46*%
G04 Gerber Fmt 4.6, Leading zero omitted, Abs format (unit mm)*
G04 Created by KiCad (PCBNEW 10.0.4) date 2026-09-24 09:27:19*
%MOMM*%
%LPD*%
G01*
G04 APERTURE LIST*
G04 Aperture macros list*
%AMRoundRect*
0 Rectangle with rounded corners*
0 $1 Rounding radius*
0 $2 $3 $4 $5 $6 $7 $8 $9 X,Y pos of 4 corners*
0 Add a 4 corners polygon primitive as box body*
4,1,4,$2,$3,$4,$5,$6,$7,$8,$9,$2,$3,0*
0 Add four circle primitives for the rounded corners*
1,1,$1+$1,$2,$3*
1,1,$1+$1,$4,$5*
1,1,$1+$1,$6,$7*
1,1,$1+$1,$8,$9*
0 Add four rect primitives between the rounded corners*
20,1,$1+$1,$2,$3,$4,$5,0*
20,1,$1+$1,$4,$5,$6,$7,0*
20,1,$1+$1,$6,$7,$8,$9,0*
20,1,$1+$1,$8,$9,$2,$3,0*%
G04 Aperture macros list end*
%TA.AperFunction,ComponentPad*%
%ADD10RoundRect,0.250000X0.550000X-0.550000X0.550000X0.550000X-0.550000X0.550000X-0.550000X-0.550000X0*%
%TD*%
%TA.AperFunction,ComponentPad*%
%ADD11C,1.600000*%
%TD*%
%TA.AperFunction,ComponentPad*%
%ADD12C,2.300000*%
%TD*%
%TA.AperFunction,ComponentPad*%
%ADD13RoundRect,0.250000X-0.550000X-0.550000X0.550000X-0.550000X0.550000X0.550000X-0.550000X0.550000X0*%
%TD*%
%TA.AperFunction,ComponentPad*%
%ADD14R,2.000000X2.000000*%
%TD*%
%TA.AperFunction,ComponentPad*%
%ADD15C,2.000000*%
%TD*%
%TA.AperFunction,ComponentPad*%
%ADD16R,2.000000X3.200000*%
%TD*%
%TA.AperFunction,ComponentPad*%
%ADD17R,3.500000X1.700000*%
%TD*%
%TA.AperFunction,ComponentPad*%
%ADD18O,3.600000X1.700000*%
%TD*%
%TA.AperFunction,ComponentPad*%
%ADD19O,3.700000X1.700000*%
%TD*%
%TA.AperFunction,ViaPad*%
%ADD20C,0.600000*%
%TD*%
%TA.AperFunction,Conductor*%
%ADD21C,0.200000*%
%TD*%
G04 APERTURE END LIST*
D10*
%TO.P,D14,1,K_1*%
%TO.N,/ROW3*%
X85625000Y-178822500D03*
D11*
%TO.P,D14,2,A_2*%
%TO.N,Net-(D14-A)*%
X85625000Y-171202500D03*
%TD*%
D12*
%TO.P,SW12,1,1_1*%
%TO.N,/COL3*%
X120015000Y-145097500D03*
%TO.P,SW12,2,2_2*%
%TO.N,Net-(D12-A)*%
X126365000Y-142557500D03*
%TD*%
D10*
%TO.P,D9,1,K_1*%
%TO.N,/ROW2*%
X66625000Y-150012500D03*
D11*
%TO.P,D9,2,A_2*%
%TO.N,Net-(D9-A)*%
X66625000Y-142392500D03*
%TD*%
D13*
%TO.P,D4,1,K_1*%
%TO.N,/ROW0*%
X90005000Y-119512500D03*
D11*
%TO.P,D4,2,A_2*%
%TO.N,Net-(D4-A)*%
X97625000Y-119512500D03*
%TD*%
D12*
%TO.P,SW6,1,1_1*%
%TO.N,/COL1*%
X72390000Y-126047500D03*
%TO.P,SW6,2,2_2*%
%TO.N,Net-(D6-A)*%
X78740000Y-123507500D03*
%TD*%
%TO.P,SW11,1,1_1*%
%TO.N,/COL2*%
X91440000Y-145097500D03*
%TO.P,SW11,2,2_2*%
%TO.N,Net-(D11-A)*%
X97790000Y-142557500D03*
%TD*%
%TO.P,SW2,1,1_1*%
%TO.N,/COL0*%
X53340000Y-106997500D03*
%TO.P,SW2,2,2_2*%
%TO.N,Net-(D2-A)*%
X59690000Y-104457500D03*
%TD*%
%TO.P,SW15,1,1_1*%
%TO.N,/COL2*%
X91440000Y-173672500D03*
%TO.P,SW15,2,2_2*%
%TO.N,Net-(D15-A)*%
X97790000Y-171132500D03*
%TD*%
%TO.P,SW10,1,1_1*%
%TO.N,/COL1*%
X72390000Y-145097500D03*
%TO.P,SW10,2,2_2*%
%TO.N,Net-(D10-A)*%
X78740000Y-142557500D03*
%TD*%
%TO.P,SW7,1,1_1*%
%TO.N,/COL2*%
X91440000Y-126047500D03*
%TO.P,SW7,2,2_2*%
%TO.N,Net-(D7-A)*%
X97790000Y-123507500D03*
%TD*%
%TO.P,SW4,1,1_1*%
%TO.N,/COL2*%
X91440000Y-106997500D03*
%TO.P,SW4,2,2_2*%
%TO.N,Net-(D4-A)*%
X97790000Y-104457500D03*
%TD*%
%TO.P,SW8,1,1_1*%
%TO.N,/COL3*%
X120015000Y-126047500D03*
%TO.P,SW8,2,2_2*%
%TO.N,Net-(D8-A)*%
X126365000Y-123507500D03*
%TD*%
D10*
%TO.P,D16,1,K_1*%
%TO.N,/ROW3*%
X133350000Y-178822500D03*
D11*
%TO.P,D16,2,A_2*%
%TO.N,Net-(D16-A)*%
X133350000Y-171202500D03*
%TD*%
D14*
%TO.P,SW1,A,A_A*%
%TO.N,/POT1*%
X126325000Y-102287500D03*
D15*
%TO.P,SW1,B,B_B*%
%TO.N,/POT0*%
X121325000Y-102287500D03*
%TO.P,SW1,C,C_C*%
%TO.N,/GND*%
X123825000Y-102287500D03*
D16*
%TO.P,SW1,MP*%
%TO.N,N/C*%
X129425000Y-109787500D03*
X118225000Y-109787500D03*
D15*
%TO.P,SW1,S1,S1_S1*%
%TO.N,Net-(D1-A)*%
X121325000Y-116787500D03*
%TO.P,SW1,S2,S2_S2*%
%TO.N,/COL3*%
X126325000Y-116787500D03*
%TD*%
D12*
%TO.P,SW13,1,1_1*%
%TO.N,/COL0*%
X53340000Y-173672500D03*
%TO.P,SW13,2,2_2*%
%TO.N,Net-(D13-A)*%
X59690000Y-171132500D03*
%TD*%
D10*
%TO.P,D10,1,K_1*%
%TO.N,/ROW2*%
X85625000Y-150132500D03*
D11*
%TO.P,D10,2,A_2*%
%TO.N,Net-(D10-A)*%
X85625000Y-142512500D03*
%TD*%
D10*
%TO.P,D7,1,K_1*%
%TO.N,/ROW1*%
X104625000Y-131322500D03*
D11*
%TO.P,D7,2,A_2*%
%TO.N,Net-(D7-A)*%
X104625000Y-123702500D03*
%TD*%
D12*
%TO.P,SW9,1,1_1*%
%TO.N,/COL0*%
X53340000Y-145097500D03*
%TO.P,SW9,2,2_2*%
%TO.N,Net-(D9-A)*%
X59690000Y-142557500D03*
%TD*%
%TO.P,SW5,1,1_1*%
%TO.N,/COL0*%
X53317764Y-126047500D03*
%TO.P,SW5,2,2_2*%
%TO.N,Net-(D5-A)*%
X59667764Y-123507500D03*
%TD*%
D10*
%TO.P,D13,1,K_1*%
%TO.N,/ROW3*%
X66625000Y-178512500D03*
D11*
%TO.P,D13,2,A_2*%
%TO.N,Net-(D13-A)*%
X66625000Y-170892500D03*
%TD*%
D10*
%TO.P,D1,1,K_1*%
%TO.N,/ROW0*%
X114125000Y-116322500D03*
D11*
%TO.P,D1,2,A_2*%
%TO.N,Net-(D1-A)*%
X114125000Y-108702500D03*
%TD*%
D10*
%TO.P,D15,1,K_1*%
%TO.N,/ROW3*%
X104625000Y-178512500D03*
D11*
%TO.P,D15,2,A_2*%
%TO.N,Net-(D15-A)*%
X104625000Y-170892500D03*
%TD*%
D10*
%TO.P,D5,1,K_1*%
%TO.N,/ROW1*%
X66625000Y-131132500D03*
D11*
%TO.P,D5,2,A_2*%
%TO.N,Net-(D5-A)*%
X66625000Y-123512500D03*
%TD*%
D10*
%TO.P,D8,1,K_1*%
%TO.N,/ROW1*%
X133625000Y-131012500D03*
D11*
%TO.P,D8,2,A_2*%
%TO.N,Net-(D8-A)*%
X133625000Y-123392500D03*
%TD*%
D10*
%TO.P,D12,1,K_1*%
%TO.N,/ROW2*%
X133125000Y-150322500D03*
D11*
%TO.P,D12,2,A_2*%
%TO.N,Net-(D12-A)*%
X133125000Y-142702500D03*
%TD*%
D12*
%TO.P,SW14,1,1_1*%
%TO.N,/COL1*%
X72390000Y-173672500D03*
%TO.P,SW14,2,2_2*%
%TO.N,Net-(D14-A)*%
X78740000Y-171132500D03*
%TD*%
D13*
%TO.P,D3,1,K_1*%
%TO.N,/ROW0*%
X70815000Y-118512500D03*
D11*
%TO.P,D3,2,A_2*%
%TO.N,Net-(D3-A)*%
X78435000Y-118512500D03*
%TD*%
D12*
%TO.P,SW3,1,1_1*%
%TO.N,/COL1*%
X72390000Y-106997500D03*
%TO.P,SW3,2,2_2*%
%TO.N,Net-(D3-A)*%
X78740000Y-104457500D03*
%TD*%
D10*
%TO.P,D11,1,K_1*%
%TO.N,/ROW2*%
X104775000Y-150012500D03*
D11*
%TO.P,D11,2,A_2*%
%TO.N,Net-(D11-A)*%
X104775000Y-142392500D03*
%TD*%
D10*
%TO.P,D6,1,K_1*%
%TO.N,/ROW1*%
X85625000Y-131322500D03*
D11*
%TO.P,D6,2,A_2*%
%TO.N,Net-(D6-A)*%
X85625000Y-123702500D03*
%TD*%
D12*
%TO.P,SW16,1,1_1*%
%TO.N,/COL3*%
X120015000Y-173672500D03*
%TO.P,SW16,2,2_2*%
%TO.N,Net-(D16-A)*%
X126365000Y-171132500D03*
%TD*%
D10*
%TO.P,D2,1,K_1*%
%TO.N,/ROW0*%
X66652764Y-113347500D03*
D11*
%TO.P,D2,2,A_2*%
%TO.N,Net-(D2-A)*%
X66652764Y-105727500D03*
%TD*%
D17*
%TO.P,U1,1,PA02_A0_D0_1*%
%TO.N,/ROW0*%
X103875000Y-98604515D03*
D18*
%TO.P,U1,2,PA4_A1_D1_2*%
%TO.N,/ROW1*%
X103875000Y-101144515D03*
%TO.P,U1,3,PA10_A2_D2_3*%
%TO.N,/ROW2*%
X103875000Y-103684515D03*
%TO.P,U1,4,PA11_A3_D3_4*%
%TO.N,/ROW3*%
X103875000Y-106224515D03*
%TO.P,U1,5,PA8_A4_D4_SDA_5*%
%TO.N,/COL0*%
X103875000Y-108764515D03*
%TO.P,U1,6,PA9_A5_D5_SCL_6*%
%TO.N,/COL1*%
X103875000Y-111304515D03*
%TO.P,U1,7,PB08_A6_D6_TX_7*%
%TO.N,/COL2*%
X103875000Y-113844515D03*
%TO.P,U1,8,PB09_A7_D7_RX_8*%
%TO.N,/COL3*%
X86625000Y-113844515D03*
%TO.P,U1,9,PA7_A8_D8_SCK_9*%
%TO.N,/POT0*%
X86625000Y-111304515D03*
%TO.P,U1,10,PA5_A9_D9_MISO_10*%
%TO.N,/POT1*%
X86625000Y-108764515D03*
D19*
%TO.P,U1,11,PA6_A10_D10_MOSI_11*%
%TO.N,unconnected-(U1-PA6_A10_D10_MOSI-Pad11)*%
X86625000Y-106224515D03*
%TO.P,U1,12,3V3_12*%
%TO.N,unconnected-(U1-3V3-Pad12)*%
X86625000Y-103684515D03*
%TO.P,U1,13,GND_13*%
%TO.N,unconnected-(U1-GND-Pad13)*%
X86625000Y-101144515D03*
%TO.P,U1,14,5V_14*%
%TO.N,unconnected-(U1-5V-Pad14)*%
X86625000Y-98604515D03*
%TD*%
D20*
%TO.N,/ROW1*%
X111125000Y-118012500D03*
X111125000Y-127512500D03*
%TO.N,/COL2*%
X91625000Y-118012500D03*
X91625000Y-114512500D03*
%TO.N,/ROW3*%
X109125000Y-143512500D03*
X109125000Y-133012500D03*
X109605735Y-119993235D03*
%TO.N,/COL0*%
X53317764Y-106997500D03*
%TO.N,/COL1*%
X82125000Y-113012500D03*
X84125000Y-117012500D03*
%TO.N,/COL3*%
X98625000Y-111512500D03*
X113625000Y-119012500D03*
X108625000Y-116512500D03*
%TO.N,/ROW2*%
X110125000Y-133012500D03*
X110525000Y-119012500D03*
%TD*%
%TO.N,/ROW1*%
D21*
X111125000Y-118012500D02*
X111125000Y-127512500D01*
%TO.N,/COL2*%
X91597182Y-123984682D02*
X91440000Y-124141865D01*
X91625000Y-123956864D02*
X91625000Y-118012500D01*
X101737350Y-113844515D02*
X91597182Y-123984682D01*
X91440000Y-126047500D02*
X91440000Y-173672500D01*
X91597182Y-123984682D02*
X91625000Y-123956864D01*
X102875000Y-113844515D02*
X101737350Y-113844515D01*
X91440000Y-114327500D02*
X91440000Y-106997500D01*
X91440000Y-124141865D02*
X91440000Y-126047500D01*
X91625000Y-114512500D02*
X91440000Y-114327500D01*
%TO.N,/ROW3*%
X109125000Y-133012500D02*
X109125000Y-120473970D01*
X109125000Y-174012500D02*
X104625000Y-178512500D01*
X109125000Y-143512500D02*
X109125000Y-174012500D01*
X109125000Y-120473970D02*
X109605735Y-119993235D01*
%TO.N,/COL0*%
X53317764Y-109075088D02*
X53317764Y-106997500D01*
X60255176Y-116012500D02*
X56625000Y-116012500D01*
X60255176Y-116012500D02*
X60190088Y-115947412D01*
X60190088Y-115947412D02*
X53317764Y-109075088D01*
X95627015Y-116012500D02*
X60255176Y-116012500D01*
X102875000Y-108764515D02*
X95627015Y-116012500D01*
X53317764Y-148819736D02*
X53340000Y-148841972D01*
X56625000Y-116012500D02*
X53317764Y-119319736D01*
X53340000Y-148841972D02*
X53340000Y-173672500D01*
X53317764Y-126047500D02*
X53317764Y-148819736D01*
X53317764Y-119319736D02*
X53317764Y-126047500D01*
%TO.N,/COL1*%
X77425000Y-121012500D02*
X80125000Y-121012500D01*
X82125000Y-113012500D02*
X82125000Y-112147725D01*
X82125000Y-112147725D02*
X76974775Y-106997500D01*
X102875000Y-111304515D02*
X97167015Y-117012500D01*
X80125000Y-121012500D02*
X84125000Y-117012500D01*
X72390000Y-173672500D02*
X72390000Y-126047500D01*
X76974775Y-106997500D02*
X72390000Y-106997500D01*
X72390000Y-126047500D02*
X77425000Y-121012500D01*
X97167015Y-117012500D02*
X84125000Y-117012500D01*
%TO.N,/COL3*%
X88892985Y-115112500D02*
X95025000Y-115112500D01*
X111125000Y-116512500D02*
X113625000Y-119012500D01*
X120015000Y-145097500D02*
X120015000Y-173672500D01*
X108625000Y-116512500D02*
X111125000Y-116512500D01*
X87625000Y-113844515D02*
X88892985Y-115112500D01*
X95025000Y-115112500D02*
X98625000Y-111512500D01*
X120015000Y-126047500D02*
X126325000Y-119737500D01*
X126325000Y-119737500D02*
X126325000Y-116787500D01*
X120015000Y-126047500D02*
X120015000Y-145097500D01*
%TO.N,/ROW2*%
X110125000Y-133012500D02*
X110125000Y-125512500D01*
X110525000Y-125112500D02*
X110525000Y-119012500D01*
X110125000Y-125512500D02*
X110525000Y-125112500D01*
%TO.N,/POT1*%
X87625000Y-108012500D02*
X99525000Y-96112500D01*
X99525000Y-96112500D02*
X120150000Y-96112500D01*
X87625000Y-108764515D02*
X87625000Y-108012500D01*
X120150000Y-96112500D02*
X126325000Y-102287500D01*
%TO.N,/POT0*%
X87625000Y-111304515D02*
X88945000Y-109984515D01*
X88945000Y-107258186D02*
X99690686Y-96512500D01*
X115550000Y-96512500D02*
X121325000Y-102287500D01*
X88945000Y-109984515D02*
X88945000Y-107258186D01*
X99690686Y-96512500D02*
X115550000Y-96512500D01*
%TD*%
M02*
